<svg version="1.1" viewBox="0.0 0.0 502.68241469816275 350.48818897637796" fill="none" stroke="none" stroke-linecap="square" stroke-miterlimit="10" xmlns:xlink="http://www.w3.org/1999/xlink" xmlns="http://www.w3.org/2000/svg"><clipPath id="p.0"><path d="m0 0l502.6824 0l0 350.4882l-502.6824 0l0 -350.4882z" clip-rule="nonzero"/></clipPath><g clip-path="url(#p.0)"><path fill="#000000" fill-opacity="0.0" d="m0 0l502.6824 0l0 350.4882l-502.6824 0z" fill-rule="evenodd"/><path fill="#f3f3f3" fill-opacity="0.2692" d="m278.6168 38.70866l131.65356 0l0 140.47244l-131.65356 0z" fill-rule="evenodd"/><path stroke="#000000" stroke-width="1.0" stroke-linejoin="round" stroke-linecap="butt" d="m278.6168 38.70866l131.65356 0l0 140.47244l-131.65356 0z" fill-rule="evenodd"/><path fill="#999999" d="m125.84777 313.9284l132.68576 0l0 36.559784l-132.68576 0z" fill-rule="evenodd"/><path fill="#7a7a7a" d="m258.53354 313.9284l152.44809 -152.44809l0 36.5598l-152.44809 152.44807z" fill-rule="evenodd"/><path fill="#adadad" d="m125.84777 313.9284l152.44806 -152.44809l132.68579 0l-152.44809 152.44809z" fill-rule="evenodd"/><path fill="#000000" fill-opacity="0.0" d="m125.84777 313.9284l152.44806 -152.44809l132.68579 0l0 36.5598l-152.44809 152.44807l-132.68576 0zm0 0l132.68576 0l152.44809 -152.44809m-152.44809 152.44809l0 36.559784" fill-rule="evenodd"/><path fill="#f3f3f3" fill-opacity="0.2692" d="m125.84777 191.97192l132.78397 0l0 158.51627l-132.78397 0z" fill-rule="evenodd"/><path fill="#c2c2c2" fill-opacity="0.2692" d="m258.63174 191.97192l152.34988 -152.34988l0 158.51627l-152.34988 152.34987z" fill-rule="evenodd"/><path fill="#f5f5f5" fill-opacity="0.2692" d="m125.84777 191.97192l152.34985 -152.34988l132.784 0l-152.34988 152.34988z" fill-rule="evenodd"/><path fill="#000000" fill-opacity="0.0" d="m125.84777 191.97192l152.34985 -152.34988l132.784 0l0 158.51627l-152.34988 152.34987l-132.78397 0zm0 0l132.78397 0l152.34988 -152.34988m-152.34988 152.34988l0 158.51627" fill-rule="evenodd"/><path stroke="#000000" stroke-width="1.0" stroke-linejoin="round" stroke-linecap="butt" d="m125.84777 191.97192l152.34985 -152.34988l132.784 0l0 158.51627l-152.34988 152.34987l-132.78397 0zm0 0l132.78397 0l152.34988 -152.34988m-152.34988 152.34988l0 158.51627" fill-rule="evenodd"/><path fill="#980000" d="m113.12303 63.8529l0 0c10.149864 -6.71439 30.617859 4.3409996 45.716537 24.692913l0 0c15.098679 20.351913 19.110489 42.29348 8.960632 49.00788l0 0c-10.149872 6.714386 -30.617859 -4.3410034 -45.716537 -24.692924l0 0c-15.098679 -20.351906 -19.110489 -42.29348 -8.960632 -49.00787z" fill-rule="evenodd"/><path stroke="#000000" stroke-width="1.0" stroke-linejoin="round" stroke-linecap="butt" d="m113.12303 63.8529l0 0c10.149864 -6.71439 30.617859 4.3409996 45.716537 24.692913l0 0c15.098679 20.351913 19.110489 42.29348 8.960632 49.00788l0 0c-10.149872 6.714386 -30.617859 -4.3410034 -45.716537 -24.692924l0 0c-15.098679 -20.351906 -19.110489 -42.29348 -8.960632 -49.00787z" fill-rule="evenodd"/><path fill="#980000" d="m113.30524 63.702854l65.88696 -23.490612l34.71425 46.792244l-45.92404 50.399155z" fill-rule="evenodd"/><path stroke="#000000" stroke-width="1.0" stroke-linejoin="round" stroke-linecap="butt" d="m113.30524 63.702854l65.88696 -23.490612l34.71425 46.792244l-45.92404 50.399155z" fill-rule="evenodd"/><path fill="#980000" d="m210.56604 20.982195l0 0c-3.1198425 2.0640965 2.0150757 14.0736065 11.469147 26.823992c9.454071 12.750385 19.647232 21.413334 22.767075 19.34924l-32.261154 21.34414c-3.1198273 2.0640945 -13.312988 -6.598854 -22.76706 -19.349236c-9.454071 -12.750385 -14.588989 -24.7599 -11.469147 -26.823994z" fill-rule="evenodd"/><path fill="#c16666" d="m210.56604 20.982195l0 0c3.1198273 -2.0640984 13.312988 6.5988503 22.76706 19.349234c9.454071 12.750385 14.588989 24.759895 11.469162 26.823997l0 0c-3.1198425 2.0640945 -13.313004 -6.598854 -22.767075 -19.34924c-9.454071 -12.750385 -14.588989 -24.759895 -11.469147 -26.823992z" fill-rule="evenodd"/><path fill="#000000" fill-opacity="0.0" d="m244.80226 67.155426l0 0c-3.1198425 2.0640945 -13.313004 -6.598854 -22.767075 -19.34924c-9.454071 -12.750385 -14.588989 -24.759895 -11.469147 -26.823992l0 0c3.1198273 -2.0640984 13.312988 6.5988503 22.76706 19.349234c9.454071 12.750385 14.588989 24.759895 11.469162 26.823997l-32.261154 21.34414c-3.1198273 2.0640945 -13.312988 -6.598854 -22.76706 -19.349236c-9.454071 -12.750385 -14.588989 -24.7599 -11.469147 -26.823994l32.26114 -21.344141" fill-rule="evenodd"/><path stroke="#000000" stroke-width="1.0" stroke-linejoin="round" stroke-linecap="butt" d="m244.80226 67.155426l0 0c-3.1198425 2.0640945 -13.313004 -6.598854 -22.767075 -19.34924c-9.454071 -12.750385 -14.588989 -24.759895 -11.469147 -26.823992l0 0c3.1198273 -2.0640984 13.312988 6.5988503 22.76706 19.349234c9.454071 12.750385 14.588989 24.759895 11.469162 26.823997l-32.261154 21.34414c-3.1198273 2.0640945 -13.312988 -6.598854 -22.76706 -19.349236c-9.454071 -12.750385 -14.588989 -24.7599 -11.469147 -26.823994l32.26114 -21.344141" fill-rule="evenodd"/><path fill="#000000" fill-opacity="0.0" d="m229.34024 7.2451053l0 0c-3.3740692 2.2298913 1.7028198 14.571222 11.339523 27.565136c9.636719 12.993912 20.184036 21.719872 23.55812 19.489983l-51.403473 33.97209c-3.3740692 2.229889 -13.921387 -6.496071 -23.558105 -19.489983c-9.636719 -12.993912 -14.713593 -25.335243 -11.339523 -27.565136z" fill-rule="evenodd"/><path fill="#000000" fill-opacity="0.0" d="m229.34024 7.2451053l0 0c3.3740692 -2.2298918 13.921402 6.4960704 23.558105 19.489983c9.636719 12.993912 14.713593 25.335243 11.339539 27.565136l0 0c-3.3740845 2.229889 -13.921402 -6.496071 -23.55812 -19.489983c-9.6367035 -12.993914 -14.713593 -25.335245 -11.339523 -27.565136z" fill-rule="evenodd"/><path fill="#000000" fill-opacity="0.0" d="m264.23788 54.300224l0 0c-3.3740845 2.229889 -13.921402 -6.496071 -23.55812 -19.489983c-9.6367035 -12.993914 -14.713593 -25.335245 -11.339523 -27.565136l0 0c3.3740692 -2.2298918 13.921402 6.4960704 23.558105 19.489983c9.636719 12.993912 14.713593 25.335243 11.339539 27.565136l-51.403473 33.97209c-3.3740692 2.229889 -13.921387 -6.496071 -23.558105 -19.489983c-9.636719 -12.993912 -14.713593 -25.335243 -11.339523 -27.565136l51.403458 -33.97209" fill-rule="evenodd"/><path fill="#ffffff" fill-opacity="0.4" d="m229.34024 7.2451053l0 0c3.3740692 -2.2298918 13.921402 6.4960704 23.558105 19.489983c9.636719 12.993912 14.713593 25.335243 11.339539 27.565136l0 0c-3.3740845 2.229889 -13.921402 -6.496071 -23.55812 -19.489983c-9.6367035 -12.993914 -14.713593 -25.335245 -11.339523 -27.565136z" fill-rule="evenodd"/><path stroke="#000000" stroke-width="1.0" stroke-linejoin="round" stroke-linecap="butt" d="m264.23788 54.300224l0 0c-3.3740845 2.229889 -13.921402 -6.496071 -23.55812 -19.489983c-9.6367035 -12.993914 -14.713593 -25.335245 -11.339523 -27.565136l0 0c3.3740692 -2.2298918 13.921402 6.4960704 23.558105 19.489983c9.636719 12.993912 14.713593 25.335243 11.339539 27.565136l-51.403473 33.97209c-3.3740692 2.229889 -13.921387 -6.496071 -23.558105 -19.489983c-9.636719 -12.993912 -14.713593 -25.335243 -11.339523 -27.565136l51.403458 -33.97209" fill-rule="evenodd"/><path fill="#980000" d="m113.127945 63.861626l0 0c8.140762 -5.3923836 26.980057 6.734703 42.078735 27.086617l0 0c15.098679 20.351906 20.739197 41.221786 12.598434 46.614166l0 0c-8.140778 5.392395 -26.980072 -6.7346954 -42.07875 -27.086609l0 0c-15.098679 -20.351913 -20.73919 -41.221786 -12.598419 -46.614174z" fill-rule="evenodd"/></g></svg>