<svg version="1.1" viewBox="0.0 0.0 533.7690288713911 405.5721784776903" fill="none" stroke="none" stroke-linecap="square" stroke-miterlimit="10" xmlns:xlink="http://www.w3.org/1999/xlink" xmlns="http://www.w3.org/2000/svg"><clipPath id="p.0"><path d="m0 0l533.76904 0l0 405.57217l-533.76904 0l0 -405.57217z" clip-rule="nonzero"/></clipPath><g clip-path="url(#p.0)"><path fill="#000000" fill-opacity="0.0" d="m0 0l533.76904 0l0 405.57217l-533.76904 0z" fill-rule="evenodd"/><path fill="#434343" d="m0 319.437l429.33466 0l0 81.90158l-429.33466 0z" fill-rule="evenodd"/><path fill="#353535" d="m429.33466 319.437l102.665344 -102.66536l0 81.901566l-102.665344 102.665375z" fill-rule="evenodd"/><path fill="#686868" d="m0 319.437l102.66535 -102.66536l429.33466 0l-102.665344 102.66536z" fill-rule="evenodd"/><path fill="#000000" fill-opacity="0.0" d="m0 319.437l102.66535 -102.66536l429.33466 0l0 81.901566l-102.665344 102.665375l-429.33466 0zm0 0l429.33466 0l102.665344 -102.66536m-102.665344 102.66536l0 81.90158" fill-rule="evenodd"/><path fill="#d9d9d9" fill-opacity="0.6577" d="m0 102.10054l429.89944 0l0 299.2223l-429.89944 0z" fill-rule="evenodd"/><path fill="#adadad" fill-opacity="0.6577" d="m429.89944 102.10054l102.100555 -102.10054l0 299.2223l-102.100555 102.100555z" fill-rule="evenodd"/><path fill="#e0e0e0" fill-opacity="0.6577" d="m0 102.10054l102.10054 -102.10054l429.89948 0l-102.100555 102.10054z" fill-rule="evenodd"/><path fill="#000000" fill-opacity="0.0" d="m0 102.10054l102.10054 -102.10054l429.89948 0l0 299.2223l-102.100555 102.100555l-429.89944 0zm0 0l429.89944 0l102.100555 -102.10054m-102.100555 102.10054l0 299.2223" fill-rule="evenodd"/><path stroke="#000000" stroke-width="1.0" stroke-linejoin="round" stroke-linecap="butt" d="m0 102.10054l102.10054 -102.10054l429.89948 0l0 299.2223l-102.100555 102.100555l-429.89944 0zm0 0l429.89944 0l102.100555 -102.10054m-102.100555 102.10054l0 299.2223" fill-rule="evenodd"/></g></svg>