<svg version="1.1" viewBox="0.0 0.0 502.68241469816275 350.48818897637796" fill="none" stroke="none" stroke-linecap="square" stroke-miterlimit="10" xmlns:xlink="http://www.w3.org/1999/xlink" xmlns="http://www.w3.org/2000/svg"><clipPath id="p.0"><path d="m0 0l502.6824 0l0 350.4882l-502.6824 0l0 -350.4882z" clip-rule="nonzero"/></clipPath><g clip-path="url(#p.0)"><path fill="#000000" fill-opacity="0.0" d="m0 0l502.6824 0l0 350.4882l-502.6824 0z" fill-rule="evenodd"/><path fill="#f3f3f3" fill-opacity="0.2692" d="m278.6168 38.70866l131.65356 0l0 140.47244l-131.65356 0z" fill-rule="evenodd"/><path stroke="#000000" stroke-width="1.0" stroke-linejoin="round" stroke-linecap="butt" d="m278.6168 38.70866l131.65356 0l0 140.47244l-131.65356 0z" fill-rule="evenodd"/><path fill="#999999" d="m125.84777 313.9284l132.68576 0l0 36.559784l-132.68576 0z" fill-rule="evenodd"/><path fill="#7a7a7a" d="m258.53354 313.9284l152.44809 -152.44809l0 36.5598l-152.44809 152.44807z" fill-rule="evenodd"/><path fill="#adadad" d="m125.84777 313.9284l152.44806 -152.44809l132.68579 0l-152.44809 152.44809z" fill-rule="evenodd"/><path fill="#000000" fill-opacity="0.0" d="m125.84777 313.9284l152.44806 -152.44809l132.68579 0l0 36.5598l-152.44809 152.44807l-132.68576 0zm0 0l132.68576 0l152.44809 -152.44809m-152.44809 152.44809l0 36.559784" fill-rule="evenodd"/><path fill="#f3f3f3" fill-opacity="0.2692" d="m125.84777 191.97192l132.78397 0l0 158.51627l-132.78397 0z" fill-rule="evenodd"/><path fill="#c2c2c2" fill-opacity="0.2692" d="m258.63174 191.97192l152.34988 -152.34988l0 158.51627l-152.34988 152.34987z" fill-rule="evenodd"/><path fill="#f5f5f5" fill-opacity="0.2692" d="m125.84777 191.97192l152.34985 -152.34988l132.784 0l-152.34988 152.34988z" fill-rule="evenodd"/><path fill="#000000" fill-opacity="0.0" d="m125.84777 191.97192l152.34985 -152.34988l132.784 0l0 158.51627l-152.34988 152.34987l-132.78397 0zm0 0l132.78397 0l152.34988 -152.34988m-152.34988 152.34988l0 158.51627" fill-rule="evenodd"/><path stroke="#000000" stroke-width="1.0" stroke-linejoin="round" stroke-linecap="butt" d="m125.84777 191.97192l152.34985 -152.34988l132.784 0l0 158.51627l-152.34988 152.34987l-132.78397 0zm0 0l132.78397 0l152.34988 -152.34988m-152.34988 152.34988l0 158.51627" fill-rule="evenodd"/><path fill="#9900ff" d="m396.62015 176.0025l0 0c-10.149872 -6.714386 -30.617859 4.3410034 -45.716553 24.692917l0 0c-15.098663 20.351913 -19.110474 42.293488 -8.960632 49.007874l0 0c10.149872 6.7144012 30.617859 -4.3410034 45.716553 -24.692917l0 0c15.098663 -20.351898 19.110474 -42.293472 8.960632 -49.007874z" fill-rule="evenodd"/><path stroke="#000000" stroke-width="1.0" stroke-linejoin="round" stroke-linecap="butt" d="m396.62015 176.0025l0 0c-10.149872 -6.714386 -30.617859 4.3410034 -45.716553 24.692917l0 0c-15.098663 20.351913 -19.110474 42.293488 -8.960632 49.007874l0 0c10.149872 6.7144012 30.617859 -4.3410034 45.716553 -24.692917l0 0c15.098663 -20.351898 19.110474 -42.293472 8.960632 -49.007874z" fill-rule="evenodd"/><path fill="#9900ff" d="m396.43793 175.85246l-65.88696 -23.490616l-34.714233 46.79225l45.92404 50.399155z" fill-rule="evenodd"/><path stroke="#000000" stroke-width="1.0" stroke-linejoin="round" stroke-linecap="butt" d="m396.43793 175.85246l-65.88696 -23.490616l-34.714233 46.79225l45.92404 50.399155z" fill-rule="evenodd"/><path fill="#9900ff" d="m299.17712 133.1318l0 0c3.1198425 2.064087 -2.0150757 14.073608 -11.469147 26.82399c-9.454071 12.750381 -19.647217 21.41333 -22.76706 19.349228l32.26114 21.344147c3.1198425 2.0641022 13.312988 -6.5988464 22.76706 -19.349243c9.454071 -12.750381 14.588989 -24.759888 11.469177 -26.82399z" fill-rule="evenodd"/><path fill="#c166ff" d="m299.17712 133.1318l0 0c-3.119812 -2.0641022 -13.312988 6.5988464 -22.76706 19.349228c-9.454071 12.750381 -14.588989 24.759903 -11.469147 26.82399l0 0c3.1198425 2.0641022 13.312988 -6.5988464 22.76706 -19.349228c9.454071 -12.750381 14.588989 -24.759903 11.469147 -26.82399z" fill-rule="evenodd"/><path fill="#000000" fill-opacity="0.0" d="m264.94092 179.30502l0 0c3.1198425 2.0641022 13.312988 -6.5988464 22.76706 -19.349228c9.454071 -12.750381 14.588989 -24.759903 11.469147 -26.82399l0 0c-3.119812 -2.0641022 -13.312988 6.5988464 -22.76706 19.349228c-9.454071 12.750381 -14.588989 24.759903 -11.469147 26.82399l32.26114 21.344147c3.1198425 2.0641022 13.312988 -6.5988464 22.76706 -19.349243c9.454071 -12.750381 14.588989 -24.759888 11.469177 -26.82399l-32.26117 -21.344131" fill-rule="evenodd"/><path stroke="#000000" stroke-width="1.0" stroke-linejoin="round" stroke-linecap="butt" d="m264.94092 179.30502l0 0c3.1198425 2.0641022 13.312988 -6.5988464 22.76706 -19.349228c9.454071 -12.750381 14.588989 -24.759903 11.469147 -26.82399l0 0c-3.119812 -2.0641022 -13.312988 6.5988464 -22.76706 19.349228c-9.454071 12.750381 -14.588989 24.759903 -11.469147 26.82399l32.26114 21.344147c3.1198425 2.0641022 13.312988 -6.5988464 22.76706 -19.349243c9.454071 -12.750381 14.588989 -24.759888 11.469177 -26.82399l-32.26117 -21.344131" fill-rule="evenodd"/><path fill="#000000" fill-opacity="0.0" d="m279.57355 119.32122l0 0c3.374054 2.229889 -1.7028198 14.57122 -11.339539 27.565132c-9.636719 12.993912 -20.184052 21.71988 -23.55812 19.48999l51.403458 33.97209c3.3740845 2.229889 13.921417 -6.4960785 23.558136 -19.48999c9.636719 -12.993912 14.713593 -25.335236 11.339508 -27.565125z" fill-rule="evenodd"/><path fill="#000000" fill-opacity="0.0" d="m279.57355 119.32122l0 0c-3.3740845 -2.229889 -13.921417 6.496071 -23.558136 19.489983c-9.6367035 12.993912 -14.713577 25.33525 -11.339523 27.56514l0 0c3.3740692 2.229889 13.921402 -6.4960785 23.55812 -19.48999c9.636719 -12.993912 14.713593 -25.335243 11.339539 -27.565132z" fill-rule="evenodd"/><path fill="#000000" fill-opacity="0.0" d="m244.67589 166.37634l0 0c3.3740692 2.229889 13.921402 -6.4960785 23.55812 -19.48999c9.636719 -12.993912 14.713593 -25.335243 11.339539 -27.565132l0 0c-3.3740845 -2.229889 -13.921417 6.496071 -23.558136 19.489983c-9.6367035 12.993912 -14.713577 25.33525 -11.339523 27.56514l51.403458 33.97209c3.3740845 2.229889 13.921417 -6.4960785 23.558136 -19.48999c9.636719 -12.993912 14.713593 -25.335236 11.339508 -27.565125l-51.403442 -33.9721" fill-rule="evenodd"/><path fill="#ffffff" fill-opacity="0.4" d="m279.57355 119.32122l0 0c-3.3740845 -2.229889 -13.921417 6.496071 -23.558136 19.489983c-9.6367035 12.993912 -14.713577 25.33525 -11.339523 27.56514l0 0c3.3740692 2.229889 13.921402 -6.4960785 23.55812 -19.48999c9.636719 -12.993912 14.713593 -25.335243 11.339539 -27.565132z" fill-rule="evenodd"/><path stroke="#000000" stroke-width="1.0" stroke-linejoin="round" stroke-linecap="butt" d="m244.67589 166.37634l0 0c3.3740692 2.229889 13.921402 -6.4960785 23.55812 -19.48999c9.636719 -12.993912 14.713593 -25.335243 11.339539 -27.565132l0 0c-3.3740845 -2.229889 -13.921417 6.496071 -23.558136 19.489983c-9.6367035 12.993912 -14.713577 25.33525 -11.339523 27.56514l51.403458 33.97209c3.3740845 2.229889 13.921417 -6.4960785 23.558136 -19.48999c9.636719 -12.993912 14.713593 -25.335236 11.339508 -27.565125l-51.403442 -33.9721" fill-rule="evenodd"/><path fill="#9900ff" d="m396.61523 176.01123l0 0c-8.140778 -5.3923798 -26.980072 6.7347107 -42.078735 27.086624l0 0c-15.098694 20.351898 -20.739197 41.221786 -12.598419 46.614166l0 0c8.140747 5.3923798 26.980042 -6.7347107 42.078735 -27.086609l0 0c15.098663 -20.351913 20.739166 -41.221786 12.598419 -46.61418z" fill-rule="evenodd"/></g></svg>