<svg version="1.1" viewBox="0.0 0.0 502.68241469816275 350.48818897637796" fill="none" stroke="none" stroke-linecap="square" stroke-miterlimit="10" xmlns:xlink="http://www.w3.org/1999/xlink" xmlns="http://www.w3.org/2000/svg"><clipPath id="p.0"><path d="m0 0l502.6824 0l0 350.4882l-502.6824 0l0 -350.4882z" clip-rule="nonzero"/></clipPath><g clip-path="url(#p.0)"><path fill="#000000" fill-opacity="0.0" d="m0 0l502.6824 0l0 350.4882l-502.6824 0z" fill-rule="evenodd"/><path fill="#f3f3f3" fill-opacity="0.2692" d="m279.90552 39.622047l131.65353 0l0 140.47244l-131.65353 0z" fill-rule="evenodd"/><path stroke="#000000" stroke-width="1.0" stroke-linejoin="round" stroke-linecap="butt" d="m279.90552 39.622047l131.65353 0l0 140.47244l-131.65353 0z" fill-rule="evenodd"/><path fill="#999999" d="m126.41207 313.39822l132.68576 0l0 36.559784l-132.68576 0z" fill-rule="evenodd"/><path fill="#7a7a7a" d="m259.09784 313.39822l152.44809 -152.44809l0 36.559784l-152.44809 152.44809z" fill-rule="evenodd"/><path fill="#adadad" d="m126.41207 313.39822l152.44809 -152.44809l132.68576 0l-152.44809 152.44809z" fill-rule="evenodd"/><path fill="#000000" fill-opacity="0.0" d="m126.41207 313.39822l152.44809 -152.44809l132.68576 0l0 36.559784l-152.44809 152.44809l-132.68576 0zm0 0l132.68576 0l152.44809 -152.44809m-152.44809 152.44809l0 36.559784" fill-rule="evenodd"/><path fill="#f3f3f3" fill-opacity="0.2692" d="m126.41207 191.97192l132.78397 0l0 158.51627l-132.78397 0z" fill-rule="evenodd"/><path fill="#c2c2c2" fill-opacity="0.2692" d="m259.19604 191.97192l152.34988 -152.34988l0 158.51627l-152.34988 152.34987z" fill-rule="evenodd"/><path fill="#f5f5f5" fill-opacity="0.2692" d="m126.41207 191.97192l152.34985 -152.34988l132.784 0l-152.34988 152.34988z" fill-rule="evenodd"/><path fill="#000000" fill-opacity="0.0" d="m126.41207 191.97192l152.34985 -152.34988l132.784 0l0 158.51627l-152.34988 152.34987l-132.78397 0zm0 0l132.78397 0l152.34988 -152.34988m-152.34988 152.34988l0 158.51627" fill-rule="evenodd"/><path stroke="#000000" stroke-width="1.0" stroke-linejoin="round" stroke-linecap="butt" d="m126.41207 191.97192l152.34985 -152.34988l132.784 0l0 158.51627l-152.34988 152.34987l-132.78397 0zm0 0l132.78397 0l152.34988 -152.34988m-152.34988 152.34988l0 158.51627" fill-rule="evenodd"/><path fill="#45818e" d="m449.89047 125.03925l0 0c-10.149841 -6.7143936 -30.617859 4.340996 -45.716522 24.69291l0 0c-15.098694 20.351913 -19.110504 42.293488 -8.960632 49.007874l0 0c10.149872 6.7144012 30.617859 -4.3410034 45.716522 -24.692917l0 0c15.098694 -20.351898 19.110504 -42.293472 8.960632 -49.007866z" fill-rule="evenodd"/><path stroke="#000000" stroke-width="1.0" stroke-linejoin="round" stroke-linecap="butt" d="m449.89047 125.03925l0 0c-10.149841 -6.7143936 -30.617859 4.340996 -45.716522 24.69291l0 0c-15.098694 20.351913 -19.110504 42.293488 -8.960632 49.007874l0 0c10.149872 6.7144012 30.617859 -4.3410034 45.716522 -24.692917l0 0c15.098694 -20.351898 19.110504 -42.293472 8.960632 -49.007866z" fill-rule="evenodd"/><path fill="#45818e" d="m449.70828 124.889206l-65.88696 -23.490616l-34.714264 46.79225l45.92404 50.399155z" fill-rule="evenodd"/><path stroke="#000000" stroke-width="1.0" stroke-linejoin="round" stroke-linecap="butt" d="m449.70828 124.889206l-65.88696 -23.490616l-34.714264 46.79225l45.92404 50.399155z" fill-rule="evenodd"/><path fill="#45818e" d="m352.44748 82.16855l0 0c3.1198425 2.0640945 -2.0150757 14.073608 -11.469147 26.82399c-9.454071 12.750389 -19.647247 21.41333 -22.76709 19.349243l32.26117 21.344131c3.119812 2.0641022 13.312988 -6.5988464 22.76706 -19.349228c9.454071 -12.750389 14.588989 -24.759903 11.469147 -26.823997z" fill-rule="evenodd"/><path fill="#8fb3bb" d="m352.44748 82.16855l0 0c-3.1198425 -2.0641022 -13.312988 6.5988464 -22.76706 19.349236c-9.454071 12.750381 -14.588989 24.759895 -11.469177 26.823997l0 0c3.1198425 2.064087 13.313019 -6.598854 22.76709 -19.349243c9.454071 -12.750381 14.588989 -24.759895 11.469147 -26.82399z" fill-rule="evenodd"/><path fill="#000000" fill-opacity="0.0" d="m318.21124 128.34178l0 0c3.1198425 2.064087 13.313019 -6.598854 22.76709 -19.349243c9.454071 -12.750381 14.588989 -24.759895 11.469147 -26.82399l0 0c-3.1198425 -2.0641022 -13.312988 6.5988464 -22.76706 19.349236c-9.454071 12.750381 -14.588989 24.759895 -11.469177 26.823997l32.26117 21.344131c3.119812 2.0641022 13.312988 -6.5988464 22.76706 -19.349228c9.454071 -12.750389 14.588989 -24.759903 11.469147 -26.823997l-32.26114 -21.34414" fill-rule="evenodd"/><path stroke="#000000" stroke-width="1.0" stroke-linejoin="round" stroke-linecap="butt" d="m318.21124 128.34178l0 0c3.1198425 2.064087 13.313019 -6.598854 22.76709 -19.349243c9.454071 -12.750381 14.588989 -24.759895 11.469147 -26.82399l0 0c-3.1198425 -2.0641022 -13.312988 6.5988464 -22.76706 19.349236c-9.454071 12.750381 -14.588989 24.759895 -11.469177 26.823997l32.26117 21.344131c3.119812 2.0641022 13.312988 -6.5988464 22.76706 -19.349228c9.454071 -12.750389 14.588989 -24.759903 11.469147 -26.823997l-32.26114 -21.34414" fill-rule="evenodd"/><path fill="#000000" fill-opacity="0.0" d="m332.84387 68.43146l0 0c3.3740845 2.229889 -1.7028198 14.57122 -11.339539 27.565132c-9.636719 12.993912 -20.184021 21.71988 -23.558105 19.489983l51.403473 33.97209c3.374054 2.229889 13.921387 -6.496063 23.558105 -19.489975c9.636719 -12.993919 14.713593 -25.33525 11.339539 -27.56514z" fill-rule="evenodd"/><path fill="#000000" fill-opacity="0.0" d="m332.84387 68.43146l0 0c-3.374054 -2.229889 -13.921387 6.496071 -23.558105 19.489983c-9.636719 12.993912 -14.713593 25.335243 -11.339539 27.565132l0 0c3.3740845 2.2298965 13.921387 -6.496071 23.558105 -19.489983c9.636719 -12.993912 14.713623 -25.335243 11.339539 -27.565132z" fill-rule="evenodd"/><path fill="#000000" fill-opacity="0.0" d="m297.94623 115.48657l0 0c3.3740845 2.2298965 13.921387 -6.496071 23.558105 -19.489983c9.636719 -12.993912 14.713623 -25.335243 11.339539 -27.565132l0 0c-3.374054 -2.229889 -13.921387 6.496071 -23.558105 19.489983c-9.636719 12.993912 -14.713593 25.335243 -11.339539 27.565132l51.403473 33.97209c3.374054 2.229889 13.921387 -6.496063 23.558105 -19.489975c9.636719 -12.993919 14.713593 -25.33525 11.339539 -27.56514l-51.403473 -33.97209" fill-rule="evenodd"/><path fill="#ffffff" fill-opacity="0.4" d="m332.84387 68.43146l0 0c-3.374054 -2.229889 -13.921387 6.496071 -23.558105 19.489983c-9.636719 12.993912 -14.713593 25.335243 -11.339539 27.565132l0 0c3.3740845 2.2298965 13.921387 -6.496071 23.558105 -19.489983c9.636719 -12.993912 14.713623 -25.335243 11.339539 -27.565132z" fill-rule="evenodd"/><path stroke="#000000" stroke-width="1.0" stroke-linejoin="round" stroke-linecap="butt" d="m297.94623 115.48657l0 0c3.3740845 2.2298965 13.921387 -6.496071 23.558105 -19.489983c9.636719 -12.993912 14.713623 -25.335243 11.339539 -27.565132l0 0c-3.374054 -2.229889 -13.921387 6.496071 -23.558105 19.489983c-9.636719 12.993912 -14.713593 25.335243 -11.339539 27.565132l51.403473 33.97209c3.374054 2.229889 13.921387 -6.496063 23.558105 -19.489975c9.636719 -12.993919 14.713593 -25.33525 11.339539 -27.56514l-51.403473 -33.97209" fill-rule="evenodd"/><path fill="#45818e" d="m449.88556 125.04798l0 0c-8.140747 -5.3923874 -26.980042 6.734703 -42.078735 27.086617l0 0c-15.098663 20.351898 -20.739197 41.221786 -12.598419 46.614166l0 0c8.140778 5.392395 26.980072 -6.7346954 42.078735 -27.086609l0 0c15.098694 -20.351913 20.739197 -41.221786 12.598419 -46.614174z" fill-rule="evenodd"/></g></svg>