<svg version="1.1" viewBox="0.0 0.0 532.3018372703413 402.6404199475066" fill="none" stroke="none" stroke-linecap="square" stroke-miterlimit="10" xmlns:xlink="http://www.w3.org/1999/xlink" xmlns="http://www.w3.org/2000/svg"><clipPath id="p.0"><path d="m0 0l532.3018 0l0 402.6404l-532.3018 0l0 -402.6404z" clip-rule="nonzero"/></clipPath><g clip-path="url(#p.0)"><path fill="#000000" fill-opacity="0.0" d="m0 0l532.3018 0l0 402.6404l-532.3018 0z" fill-rule="evenodd"/><path fill="#434343" d="m0 343.99985l431.91092 0l0 57.328247l-431.91092 0z" fill-rule="evenodd"/><path fill="#353535" d="m431.91092 343.99985l100.08908 -100.08908l0 57.328247l-100.08908 100.08908z" fill-rule="evenodd"/><path fill="#686868" d="m0 343.99985l100.08908 -100.08908l431.91092 0l-100.08908 100.08908z" fill-rule="evenodd"/><path fill="#000000" fill-opacity="0.0" d="m0 343.99985l100.08908 -100.08908l431.91092 0l0 57.328247l-100.08908 100.08908l-431.91092 0zm0 0l431.91092 0l100.08908 -100.08908m-100.08908 100.08908l0 57.328247" fill-rule="evenodd"/><path fill="#980000" d="m80.0 244.29097l0 0c0 -16.899048 25.170761 -30.59842 56.220474 -30.59842l0 0c31.049713 0 56.220474 13.699371 56.220474 30.59842l0 0c0 16.899033 -25.170761 30.598434 -56.220474 30.598434l0 0c-31.049713 0 -56.220474 -13.699402 -56.220474 -30.598434z" fill-rule="evenodd"/><path stroke="#000000" stroke-width="1.0" stroke-linejoin="round" stroke-linecap="butt" d="m80.0 244.29097l0 0c0 -16.899048 25.170761 -30.59842 56.220474 -30.59842l0 0c31.049713 0 56.220474 13.699371 56.220474 30.59842l0 0c0 16.899033 -25.170761 30.598434 -56.220474 30.598434l0 0c-31.049713 0 -56.220474 -13.699402 -56.220474 -30.598434z" fill-rule="evenodd"/><path fill="#980000" d="m80.0 243.91116l23.228348 -92.913376l65.98425 0l23.228348 92.913376z" fill-rule="evenodd"/><path stroke="#000000" stroke-width="1.0" stroke-linejoin="round" stroke-linecap="butt" d="m80.0 243.91116l23.228348 -92.913376l65.98425 0l23.228348 92.913376z" fill-rule="evenodd"/><path fill="#000000" fill-opacity="0.0" d="m102.33268 65.70734l0 0c0 4.62484 14.996696 8.374016 33.496056 8.374016c18.499374 0 33.496063 -3.749176 33.496063 -8.374016l0 89.01575c0 4.624832 -14.996689 8.374008 -33.496063 8.374008c-18.49936 0 -33.496056 -3.749176 -33.496056 -8.374008z" fill-rule="evenodd"/><path fill="#000000" fill-opacity="0.0" d="m102.33268 65.70734l0 0c0 -4.6248436 14.996696 -8.37402 33.496056 -8.37402c18.499374 0 33.496063 3.749176 33.496063 8.37402l0 0c0 4.62484 -14.996689 8.374016 -33.496063 8.374016c-18.49936 0 -33.496056 -3.749176 -33.496056 -8.374016z" fill-rule="evenodd"/><path fill="#000000" fill-opacity="0.0" d="m169.3248 65.70734l0 0c0 4.62484 -14.996689 8.374016 -33.496063 8.374016c-18.49936 0 -33.496056 -3.749176 -33.496056 -8.374016l0 0c0 -4.6248436 14.996696 -8.37402 33.496056 -8.37402c18.499374 0 33.496063 3.749176 33.496063 8.37402l0 89.01575c0 4.624832 -14.996689 8.374008 -33.496063 8.374008c-18.49936 0 -33.496056 -3.749176 -33.496056 -8.374008l0 -89.01575" fill-rule="evenodd"/><path fill="#ffffff" fill-opacity="0.4" d="m102.33268 65.70734l0 0c0 -4.6248436 14.996696 -8.37402 33.496056 -8.37402c18.499374 0 33.496063 3.749176 33.496063 8.37402l0 0c0 4.62484 -14.996689 8.374016 -33.496063 8.374016c-18.49936 0 -33.496056 -3.749176 -33.496056 -8.374016z" fill-rule="evenodd"/><path stroke="#000000" stroke-width="1.0" stroke-linejoin="round" stroke-linecap="butt" d="m169.3248 65.70734l0 0c0 4.62484 -14.996689 8.374016 -33.496063 8.374016c-18.49936 0 -33.496056 -3.749176 -33.496056 -8.374016l0 0c0 -4.6248436 14.996696 -8.37402 33.496056 -8.37402c18.499374 0 33.496063 3.749176 33.496063 8.37402l0 89.01575c0 4.624832 -14.996689 8.374008 -33.496063 8.374008c-18.49936 0 -33.496056 -3.749176 -33.496056 -8.374008l0 -89.01575" fill-rule="evenodd"/><path fill="#980000" d="m80.0 244.28362l0 0c0 -13.559235 25.170761 -24.551178 56.220474 -24.551178l0 0c31.049713 0 56.220474 10.991943 56.220474 24.551178l0 0c0 13.55925 -25.170761 24.551193 -56.220474 24.551193l0 0c-31.049713 0 -56.220474 -10.991943 -56.220474 -24.551193z" fill-rule="evenodd"/><path fill="#980000" d="m102.33268 104.23062l0 0c0 4.62484 14.996696 8.374016 33.496056 8.374016c18.499374 0 33.496063 -3.749176 33.496063 -8.374016l0 50.496063c0 4.6248474 -14.996689 8.374008 -33.496063 8.374008c-18.49936 0 -33.496056 -3.7491608 -33.496056 -8.374008z" fill-rule="evenodd"/><path fill="#c16666" d="m102.33268 104.23062l0 0c0 -4.62484 14.996696 -8.374016 33.496056 -8.374016c18.499374 0 33.496063 3.749176 33.496063 8.374016l0 0c0 4.62484 -14.996689 8.374016 -33.496063 8.374016c-18.49936 0 -33.496056 -3.749176 -33.496056 -8.374016z" fill-rule="evenodd"/><path fill="#000000" fill-opacity="0.0" d="m169.3248 104.23062l0 0c0 4.62484 -14.996689 8.374016 -33.496063 8.374016c-18.49936 0 -33.496056 -3.749176 -33.496056 -8.374016l0 0c0 -4.62484 14.996696 -8.374016 33.496056 -8.374016c18.499374 0 33.496063 3.749176 33.496063 8.374016l0 50.496063c0 4.6248474 -14.996689 8.374008 -33.496063 8.374008c-18.49936 0 -33.496056 -3.7491608 -33.496056 -8.374008l0 -50.496063" fill-rule="evenodd"/><path stroke="#000000" stroke-width="1.0" stroke-linejoin="round" stroke-linecap="butt" d="m169.3248 104.23062l0 0c0 4.62484 -14.996689 8.374016 -33.496063 8.374016c-18.49936 0 -33.496056 -3.749176 -33.496056 -8.374016l0 0c0 -4.62484 14.996696 -8.374016 33.496056 -8.374016c18.499374 0 33.496063 3.749176 33.496063 8.374016l0 50.496063c0 4.6248474 -14.996689 8.374008 -33.496063 8.374008c-18.49936 0 -33.496056 -3.7491608 -33.496056 -8.374008l0 -50.496063" fill-rule="evenodd"/><path fill="#45818e" d="m357.33334 245.422l0 0c0 -16.99472 25.170746 -30.771652 56.22046 -30.771652l0 0c31.049713 0 56.22049 13.776932 56.22049 30.771652l0 0c0 16.99472 -25.170776 30.771667 -56.22049 30.771667l0 0c-31.049713 0 -56.22046 -13.776947 -56.22046 -30.771667z" fill-rule="evenodd"/><path stroke="#000000" stroke-width="1.0" stroke-linejoin="round" stroke-linecap="butt" d="m357.33334 245.422l0 0c0 -16.99472 25.170746 -30.771652 56.22046 -30.771652l0 0c31.049713 0 56.22049 13.776932 56.22049 30.771652l0 0c0 16.99472 -25.170776 30.771667 -56.22049 30.771667l0 0c-31.049713 0 -56.22046 -13.776947 -56.22046 -30.771667z" fill-rule="evenodd"/><path fill="#45818e" d="m357.33334 245.05164l23.370056 -93.480316l65.700806 0l23.370087 93.480316z" fill-rule="evenodd"/><path stroke="#000000" stroke-width="1.0" stroke-linejoin="round" stroke-linecap="butt" d="m357.33334 245.05164l23.370056 -93.480316l65.700806 0l23.370087 93.480316z" fill-rule="evenodd"/><path fill="#000000" fill-opacity="0.0" d="m379.6663 65.70677l0 0c0 4.6248474 14.996704 8.374016 33.496063 8.374016c18.49936 0 33.496063 -3.7491684 33.496063 -8.374016l0 89.645676c0 4.624832 -14.996704 8.374008 -33.496063 8.374008c-18.49936 0 -33.496063 -3.749176 -33.496063 -8.374008z" fill-rule="evenodd"/><path fill="#000000" fill-opacity="0.0" d="m379.6663 65.70677l0 0c0 -4.624836 14.996704 -8.374012 33.496063 -8.374012c18.49936 0 33.496063 3.749176 33.496063 8.374012l0 0c0 4.6248474 -14.996704 8.374016 -33.496063 8.374016c-18.49936 0 -33.496063 -3.7491684 -33.496063 -8.374016z" fill-rule="evenodd"/><path fill="#000000" fill-opacity="0.0" d="m446.65842 65.70677l0 0c0 4.6248474 -14.996704 8.374016 -33.496063 8.374016c-18.49936 0 -33.496063 -3.7491684 -33.496063 -8.374016l0 0c0 -4.624836 14.996704 -8.374012 33.496063 -8.374012c18.49936 0 33.496063 3.749176 33.496063 8.374012l0 89.645676c0 4.624832 -14.996704 8.374008 -33.496063 8.374008c-18.49936 0 -33.496063 -3.749176 -33.496063 -8.374008l0 -89.645676" fill-rule="evenodd"/><path fill="#ffffff" fill-opacity="0.4" d="m379.6663 65.70677l0 0c0 -4.624836 14.996704 -8.374012 33.496063 -8.374012c18.49936 0 33.496063 3.749176 33.496063 8.374012l0 0c0 4.6248474 -14.996704 8.374016 -33.496063 8.374016c-18.49936 0 -33.496063 -3.7491684 -33.496063 -8.374016z" fill-rule="evenodd"/><path stroke="#000000" stroke-width="1.0" stroke-linejoin="round" stroke-linecap="butt" d="m446.65842 65.70677l0 0c0 4.6248474 -14.996704 8.374016 -33.496063 8.374016c-18.49936 0 -33.496063 -3.7491684 -33.496063 -8.374016l0 0c0 -4.624836 14.996704 -8.374012 33.496063 -8.374012c18.49936 0 33.496063 3.749176 33.496063 8.374012l0 89.645676c0 4.624832 -14.996704 8.374008 -33.496063 8.374008c-18.49936 0 -33.496063 -3.749176 -33.496063 -8.374008l0 -89.645676" fill-rule="evenodd"/><path fill="#45818e" d="m357.33334 245.43593l0 0c0 -13.646225 25.170746 -24.708664 56.22046 -24.708664l0 0c31.049713 0 56.22049 11.062439 56.22049 24.708664l0 0c0 13.646225 -25.170776 24.708664 -56.22049 24.708664l0 0c-31.049713 0 -56.22046 -11.062439 -56.22046 -24.708664z" fill-rule="evenodd"/><path fill="#45818e" d="m379.6663 104.46618l0 0c0 4.62484 14.996704 8.374016 33.496063 8.374016c18.49936 0 33.496063 -3.749176 33.496063 -8.374016l0 50.90551c0 4.6248474 -14.996704 8.374023 -33.496063 8.374023c-18.49936 0 -33.496063 -3.749176 -33.496063 -8.374023z" fill-rule="evenodd"/><path fill="#8fb3bb" d="m379.6663 104.46618l0 0c0 -4.62484 14.996704 -8.374016 33.496063 -8.374016c18.49936 0 33.496063 3.749176 33.496063 8.374016l0 0c0 4.62484 -14.996704 8.374016 -33.496063 8.374016c-18.49936 0 -33.496063 -3.749176 -33.496063 -8.374016z" fill-rule="evenodd"/><path fill="#000000" fill-opacity="0.0" d="m446.65842 104.46618l0 0c0 4.62484 -14.996704 8.374016 -33.496063 8.374016c-18.49936 0 -33.496063 -3.749176 -33.496063 -8.374016l0 0c0 -4.62484 14.996704 -8.374016 33.496063 -8.374016c18.49936 0 33.496063 3.749176 33.496063 8.374016l0 50.90551c0 4.6248474 -14.996704 8.374023 -33.496063 8.374023c-18.49936 0 -33.496063 -3.749176 -33.496063 -8.374023l0 -50.90551" fill-rule="evenodd"/><path stroke="#000000" stroke-width="1.0" stroke-linejoin="round" stroke-linecap="butt" d="m446.65842 104.46618l0 0c0 4.62484 -14.996704 8.374016 -33.496063 8.374016c-18.49936 0 -33.496063 -3.749176 -33.496063 -8.374016l0 0c0 -4.62484 14.996704 -8.374016 33.496063 -8.374016c18.49936 0 33.496063 3.749176 33.496063 8.374016l0 50.90551c0 4.6248474 -14.996704 8.374023 -33.496063 8.374023c-18.49936 0 -33.496063 -3.749176 -33.496063 -8.374023l0 -50.90551" fill-rule="evenodd"/><path fill="#d9d9d9" fill-opacity="0.6577" d="m0 102.10054l429.89944 0l0 299.2223l-429.89944 0z" fill-rule="evenodd"/><path fill="#adadad" fill-opacity="0.6577" d="m429.89944 102.10054l102.100555 -102.10054l0 299.2223l-102.100555 102.100555z" fill-rule="evenodd"/><path fill="#e0e0e0" fill-opacity="0.6577" d="m0 102.10054l102.10054 -102.10054l429.89948 0l-102.100555 102.10054z" fill-rule="evenodd"/><path fill="#000000" fill-opacity="0.0" d="m0 102.10054l102.10054 -102.10054l429.89948 0l0 299.2223l-102.100555 102.100555l-429.89944 0zm0 0l429.89944 0l102.100555 -102.10054m-102.100555 102.10054l0 299.2223" fill-rule="evenodd"/><path stroke="#000000" stroke-width="1.0" stroke-linejoin="round" stroke-linecap="butt" d="m0 102.10054l102.10054 -102.10054l429.89948 0l0 299.2223l-102.100555 102.100555l-429.89944 0zm0 0l429.89944 0l102.100555 -102.10054m-102.100555 102.10054l0 299.2223" fill-rule="evenodd"/></g></svg>