<svg version="1.1" viewBox="0.0 0.0 535.2335958005249 405.5721784776903" fill="none" stroke="none" stroke-linecap="square" stroke-miterlimit="10" xmlns:xlink="http://www.w3.org/1999/xlink" xmlns="http://www.w3.org/2000/svg"><clipPath id="p.0"><path d="m0 0l535.2336 0l0 405.57217l-535.2336 0l0 -405.57217z" clip-rule="nonzero"/></clipPath><g clip-path="url(#p.0)"><path fill="#000000" fill-opacity="0.0" d="m0 0l535.2336 0l0 405.57217l-535.2336 0z" fill-rule="evenodd"/><path fill="#434343" d="m0 346.6665l429.24426 0l0 54.66159l-429.24426 0z" fill-rule="evenodd"/><path fill="#353535" d="m429.24426 346.6665l102.75574 -102.75574l0 54.66159l-102.75574 102.75574z" fill-rule="evenodd"/><path fill="#686868" d="m0 346.6665l102.75573 -102.75574l429.24426 0l-102.75574 102.75574z" fill-rule="evenodd"/><path fill="#000000" fill-opacity="0.0" d="m0 346.6665l102.75573 -102.75574l429.24426 0l0 54.66159l-102.75574 102.75574l-429.24426 0zm0 0l429.24426 0l102.75574 -102.75574m-102.75574 102.75574l0 54.66159" fill-rule="evenodd"/><path fill="#45818e" d="m357.33334 245.422l0 0c0 -16.99472 25.170746 -30.771652 56.22046 -30.771652l0 0c31.049713 0 56.22049 13.776932 56.22049 30.771652l0 0c0 16.99472 -25.170776 30.771667 -56.22049 30.771667l0 0c-31.049713 0 -56.22046 -13.776947 -56.22046 -30.771667z" fill-rule="evenodd"/><path stroke="#000000" stroke-width="1.0" stroke-linejoin="round" stroke-linecap="butt" d="m357.33334 245.422l0 0c0 -16.99472 25.170746 -30.771652 56.22046 -30.771652l0 0c31.049713 0 56.22049 13.776932 56.22049 30.771652l0 0c0 16.99472 -25.170776 30.771667 -56.22049 30.771667l0 0c-31.049713 0 -56.22046 -13.776947 -56.22046 -30.771667z" fill-rule="evenodd"/><path fill="#45818e" d="m357.33334 245.05164l23.370056 -93.480316l65.700806 0l23.370087 93.480316z" fill-rule="evenodd"/><path stroke="#000000" stroke-width="1.0" stroke-linejoin="round" stroke-linecap="butt" d="m357.33334 245.05164l23.370056 -93.480316l65.700806 0l23.370087 93.480316z" fill-rule="evenodd"/><path fill="#000000" fill-opacity="0.0" d="m379.6663 65.70677l0 0c0 4.6248474 14.996704 8.374016 33.496063 8.374016c18.49936 0 33.496063 -3.7491684 33.496063 -8.374016l0 89.645676c0 4.624832 -14.996704 8.374008 -33.496063 8.374008c-18.49936 0 -33.496063 -3.749176 -33.496063 -8.374008z" fill-rule="evenodd"/><path fill="#000000" fill-opacity="0.0" d="m379.6663 65.70677l0 0c0 -4.624836 14.996704 -8.374012 33.496063 -8.374012c18.49936 0 33.496063 3.749176 33.496063 8.374012l0 0c0 4.6248474 -14.996704 8.374016 -33.496063 8.374016c-18.49936 0 -33.496063 -3.7491684 -33.496063 -8.374016z" fill-rule="evenodd"/><path fill="#000000" fill-opacity="0.0" d="m446.65842 65.70677l0 0c0 4.6248474 -14.996704 8.374016 -33.496063 8.374016c-18.49936 0 -33.496063 -3.7491684 -33.496063 -8.374016l0 0c0 -4.624836 14.996704 -8.374012 33.496063 -8.374012c18.49936 0 33.496063 3.749176 33.496063 8.374012l0 89.645676c0 4.624832 -14.996704 8.374008 -33.496063 8.374008c-18.49936 0 -33.496063 -3.749176 -33.496063 -8.374008l0 -89.645676" fill-rule="evenodd"/><path fill="#ffffff" fill-opacity="0.4" d="m379.6663 65.70677l0 0c0 -4.624836 14.996704 -8.374012 33.496063 -8.374012c18.49936 0 33.496063 3.749176 33.496063 8.374012l0 0c0 4.6248474 -14.996704 8.374016 -33.496063 8.374016c-18.49936 0 -33.496063 -3.7491684 -33.496063 -8.374016z" fill-rule="evenodd"/><path stroke="#000000" stroke-width="1.0" stroke-linejoin="round" stroke-linecap="butt" d="m446.65842 65.70677l0 0c0 4.6248474 -14.996704 8.374016 -33.496063 8.374016c-18.49936 0 -33.496063 -3.7491684 -33.496063 -8.374016l0 0c0 -4.624836 14.996704 -8.374012 33.496063 -8.374012c18.49936 0 33.496063 3.749176 33.496063 8.374012l0 89.645676c0 4.624832 -14.996704 8.374008 -33.496063 8.374008c-18.49936 0 -33.496063 -3.749176 -33.496063 -8.374008l0 -89.645676" fill-rule="evenodd"/><path fill="#45818e" d="m357.33334 245.43593l0 0c0 -13.646225 25.170746 -24.708664 56.22046 -24.708664l0 0c31.049713 0 56.22049 11.062439 56.22049 24.708664l0 0c0 13.646225 -25.170776 24.708664 -56.22049 24.708664l0 0c-31.049713 0 -56.22046 -11.062439 -56.22046 -24.708664z" fill-rule="evenodd"/><path fill="#45818e" d="m379.6663 104.46618l0 0c0 4.62484 14.996704 8.374016 33.496063 8.374016c18.49936 0 33.496063 -3.749176 33.496063 -8.374016l0 50.90551c0 4.6248474 -14.996704 8.374023 -33.496063 8.374023c-18.49936 0 -33.496063 -3.749176 -33.496063 -8.374023z" fill-rule="evenodd"/><path fill="#8fb3bb" d="m379.6663 104.46618l0 0c0 -4.62484 14.996704 -8.374016 33.496063 -8.374016c18.49936 0 33.496063 3.749176 33.496063 8.374016l0 0c0 4.62484 -14.996704 8.374016 -33.496063 8.374016c-18.49936 0 -33.496063 -3.749176 -33.496063 -8.374016z" fill-rule="evenodd"/><path fill="#000000" fill-opacity="0.0" d="m446.65842 104.46618l0 0c0 4.62484 -14.996704 8.374016 -33.496063 8.374016c-18.49936 0 -33.496063 -3.749176 -33.496063 -8.374016l0 0c0 -4.62484 14.996704 -8.374016 33.496063 -8.374016c18.49936 0 33.496063 3.749176 33.496063 8.374016l0 50.90551c0 4.6248474 -14.996704 8.374023 -33.496063 8.374023c-18.49936 0 -33.496063 -3.749176 -33.496063 -8.374023l0 -50.90551" fill-rule="evenodd"/><path stroke="#000000" stroke-width="1.0" stroke-linejoin="round" stroke-linecap="butt" d="m446.65842 104.46618l0 0c0 4.62484 -14.996704 8.374016 -33.496063 8.374016c-18.49936 0 -33.496063 -3.749176 -33.496063 -8.374016l0 0c0 -4.62484 14.996704 -8.374016 33.496063 -8.374016c18.49936 0 33.496063 3.749176 33.496063 8.374016l0 50.90551c0 4.6248474 -14.996704 8.374023 -33.496063 8.374023c-18.49936 0 -33.496063 -3.749176 -33.496063 -8.374023l0 -50.90551" fill-rule="evenodd"/><path fill="#d9d9d9" fill-opacity="0.6577" d="m0 102.10054l429.89944 0l0 299.2223l-429.89944 0z" fill-rule="evenodd"/><path fill="#adadad" fill-opacity="0.6577" d="m429.89944 102.10054l102.100555 -102.10054l0 299.2223l-102.100555 102.100555z" fill-rule="evenodd"/><path fill="#e0e0e0" fill-opacity="0.6577" d="m0 102.10054l102.10054 -102.10054l429.89948 0l-102.100555 102.10054z" fill-rule="evenodd"/><path fill="#000000" fill-opacity="0.0" d="m0 102.10054l102.10054 -102.10054l429.89948 0l0 299.2223l-102.100555 102.100555l-429.89944 0zm0 0l429.89944 0l102.100555 -102.10054m-102.100555 102.10054l0 299.2223" fill-rule="evenodd"/><path stroke="#000000" stroke-width="1.0" stroke-linejoin="round" stroke-linecap="butt" d="m0 102.10054l102.10054 -102.10054l429.89948 0l0 299.2223l-102.100555 102.100555l-429.89944 0zm0 0l429.89944 0l102.100555 -102.10054m-102.100555 102.10054l0 299.2223" fill-rule="evenodd"/></g></svg>