<svg version="1.1" viewBox="0.0 0.0 533.7690288713911 405.5721784776903" fill="none" stroke="none" stroke-linecap="square" stroke-miterlimit="10" xmlns:xlink="http://www.w3.org/1999/xlink" xmlns="http://www.w3.org/2000/svg"><clipPath id="p.0"><path d="m0 0l533.76904 0l0 405.57217l-533.76904 0l0 -405.57217z" clip-rule="nonzero"/></clipPath><g clip-path="url(#p.0)"><path fill="#000000" fill-opacity="0.0" d="m0 0l533.76904 0l0 405.57217l-533.76904 0z" fill-rule="evenodd"/><path fill="#434343" d="m0 343.99985l431.91092 0l0 57.328247l-431.91092 0z" fill-rule="evenodd"/><path fill="#353535" d="m431.91092 343.99985l100.08908 -100.08908l0 57.328247l-100.08908 100.08908z" fill-rule="evenodd"/><path fill="#686868" d="m0 343.99985l100.08908 -100.08908l431.91092 0l-100.08908 100.08908z" fill-rule="evenodd"/><path fill="#000000" fill-opacity="0.0" d="m0 343.99985l100.08908 -100.08908l431.91092 0l0 57.328247l-100.08908 100.08908l-431.91092 0zm0 0l431.91092 0l100.08908 -100.08908m-100.08908 100.08908l0 57.328247" fill-rule="evenodd"/><path fill="#38761d" d="m229.33333 244.29985l0 0c0 -16.899033 25.170761 -30.59842 56.220474 -30.59842l0 0c31.049713 0 56.22049 13.699387 56.22049 30.59842l0 0c0 16.899063 -25.170776 30.598434 -56.22049 30.598434l0 0c-31.049713 0 -56.220474 -13.699371 -56.220474 -30.598434z" fill-rule="evenodd"/><path stroke="#000000" stroke-width="1.0" stroke-linejoin="round" stroke-linecap="butt" d="m229.33333 244.29985l0 0c0 -16.899033 25.170761 -30.59842 56.220474 -30.59842l0 0c31.049713 0 56.22049 13.699387 56.22049 30.59842l0 0c0 16.899063 -25.170776 30.598434 -56.22049 30.598434l0 0c-31.049713 0 -56.220474 -13.699371 -56.220474 -30.598434z" fill-rule="evenodd"/><path fill="#38761d" d="m229.33333 243.91626l23.228348 -92.913376l65.98425 0l23.228363 92.913376z" fill-rule="evenodd"/><path stroke="#000000" stroke-width="1.0" stroke-linejoin="round" stroke-linecap="butt" d="m229.33333 243.91626l23.228348 -92.913376l65.98425 0l23.228363 92.913376z" fill-rule="evenodd"/><path fill="#000000" fill-opacity="0.0" d="m252.05437 65.706764l0 0c0 4.62484 14.996689 8.374016 33.49608 8.374016c18.49936 0 33.496063 -3.749176 33.496063 -8.374016l0 89.015755c0 4.624832 -14.996704 8.374008 -33.496063 8.374008c-18.49939 0 -33.49608 -3.749176 -33.49608 -8.374008z" fill-rule="evenodd"/><path fill="#000000" fill-opacity="0.0" d="m252.05437 65.706764l0 0c0 -4.62484 14.996689 -8.374016 33.49608 -8.374016c18.49936 0 33.496063 3.749176 33.496063 8.374016l0 0c0 4.62484 -14.996704 8.374016 -33.496063 8.374016c-18.49939 0 -33.49608 -3.749176 -33.49608 -8.374016z" fill-rule="evenodd"/><path fill="#000000" fill-opacity="0.0" d="m319.0465 65.706764l0 0c0 4.62484 -14.996704 8.374016 -33.496063 8.374016c-18.49939 0 -33.49608 -3.749176 -33.49608 -8.374016l0 0c0 -4.62484 14.996689 -8.374016 33.49608 -8.374016c18.49936 0 33.496063 3.749176 33.496063 8.374016l0 89.015755c0 4.624832 -14.996704 8.374008 -33.496063 8.374008c-18.49939 0 -33.49608 -3.749176 -33.49608 -8.374008l0 -89.015755" fill-rule="evenodd"/><path fill="#ffffff" fill-opacity="0.4" d="m252.05437 65.706764l0 0c0 -4.62484 14.996689 -8.374016 33.49608 -8.374016c18.49936 0 33.496063 3.749176 33.496063 8.374016l0 0c0 4.62484 -14.996704 8.374016 -33.496063 8.374016c-18.49939 0 -33.49608 -3.749176 -33.49608 -8.374016z" fill-rule="evenodd"/><path stroke="#000000" stroke-width="1.0" stroke-linejoin="round" stroke-linecap="butt" d="m319.0465 65.706764l0 0c0 4.62484 -14.996704 8.374016 -33.496063 8.374016c-18.49939 0 -33.49608 -3.749176 -33.49608 -8.374016l0 0c0 -4.62484 14.996689 -8.374016 33.49608 -8.374016c18.49936 0 33.496063 3.749176 33.496063 8.374016l0 89.015755c0 4.624832 -14.996704 8.374008 -33.496063 8.374008c-18.49939 0 -33.49608 -3.749176 -33.49608 -8.374008l0 -89.015755" fill-rule="evenodd"/><path fill="#38761d" d="m229.33333 244.29288l0 0c0 -13.55925 25.170761 -24.551178 56.220474 -24.551178l0 0c31.049713 0 56.22049 10.991928 56.22049 24.551178l0 0c0 13.559235 -25.170776 24.551178 -56.22049 24.551178l0 0c-31.049713 0 -56.220474 -10.991943 -56.220474 -24.551178z" fill-rule="evenodd"/><path fill="#38761d" d="m252.05437 104.23238l0 0c0 4.62484 14.996689 8.374016 33.49608 8.374016c18.49936 0 33.496063 -3.749176 33.496063 -8.374016l0 50.496056c0 4.6248474 -14.996704 8.374023 -33.496063 8.374023c-18.49939 0 -33.49608 -3.749176 -33.49608 -8.374023z" fill-rule="evenodd"/><path fill="#87ac77" d="m252.05437 104.23238l0 0c0 -4.62484 14.996689 -8.374016 33.49608 -8.374016c18.49936 0 33.496063 3.749176 33.496063 8.374016l0 0c0 4.62484 -14.996704 8.374016 -33.496063 8.374016c-18.49939 0 -33.49608 -3.749176 -33.49608 -8.374016z" fill-rule="evenodd"/><path fill="#000000" fill-opacity="0.0" d="m319.0465 104.23238l0 0c0 4.62484 -14.996704 8.374016 -33.496063 8.374016c-18.49939 0 -33.49608 -3.749176 -33.49608 -8.374016l0 0c0 -4.62484 14.996689 -8.374016 33.49608 -8.374016c18.49936 0 33.496063 3.749176 33.496063 8.374016l0 50.496056c0 4.6248474 -14.996704 8.374023 -33.496063 8.374023c-18.49939 0 -33.49608 -3.749176 -33.49608 -8.374023l0 -50.496056" fill-rule="evenodd"/><path stroke="#000000" stroke-width="1.0" stroke-linejoin="round" stroke-linecap="butt" d="m319.0465 104.23238l0 0c0 4.62484 -14.996704 8.374016 -33.496063 8.374016c-18.49939 0 -33.49608 -3.749176 -33.49608 -8.374016l0 0c0 -4.62484 14.996689 -8.374016 33.49608 -8.374016c18.49936 0 33.496063 3.749176 33.496063 8.374016l0 50.496056c0 4.6248474 -14.996704 8.374023 -33.496063 8.374023c-18.49939 0 -33.49608 -3.749176 -33.49608 -8.374023l0 -50.496056" fill-rule="evenodd"/><path fill="#d9d9d9" fill-opacity="0.6577" d="m0 102.10054l429.89944 0l0 299.2223l-429.89944 0z" fill-rule="evenodd"/><path fill="#adadad" fill-opacity="0.6577" d="m429.89944 102.10054l102.100555 -102.10054l0 299.2223l-102.100555 102.100555z" fill-rule="evenodd"/><path fill="#e0e0e0" fill-opacity="0.6577" d="m0 102.10054l102.10054 -102.10054l429.89948 0l-102.100555 102.10054z" fill-rule="evenodd"/><path fill="#000000" fill-opacity="0.0" d="m0 102.10054l102.10054 -102.10054l429.89948 0l0 299.2223l-102.100555 102.100555l-429.89944 0zm0 0l429.89944 0l102.100555 -102.10054m-102.100555 102.10054l0 299.2223" fill-rule="evenodd"/><path stroke="#000000" stroke-width="1.0" stroke-linejoin="round" stroke-linecap="butt" d="m0 102.10054l102.10054 -102.10054l429.89948 0l0 299.2223l-102.100555 102.100555l-429.89944 0zm0 0l429.89944 0l102.100555 -102.10054m-102.100555 102.10054l0 299.2223" fill-rule="evenodd"/></g></svg>