<svg version="1.1" viewBox="0.0 0.0 502.68241469816275 350.48818897637796" fill="none" stroke="none" stroke-linecap="square" stroke-miterlimit="10" xmlns:xlink="http://www.w3.org/1999/xlink" xmlns="http://www.w3.org/2000/svg"><clipPath id="p.0"><path d="m0 0l502.6824 0l0 350.4882l-502.6824 0l0 -350.4882z" clip-rule="nonzero"/></clipPath><g clip-path="url(#p.0)"><path fill="#000000" fill-opacity="0.0" d="m0 0l502.6824 0l0 350.4882l-502.6824 0z" fill-rule="evenodd"/><path fill="#f3f3f3" fill-opacity="0.2692" d="m278.6168 38.70866l131.65356 0l0 140.47244l-131.65356 0z" fill-rule="evenodd"/><path stroke="#000000" stroke-width="1.0" stroke-linejoin="round" stroke-linecap="butt" d="m278.6168 38.70866l131.65356 0l0 140.47244l-131.65356 0z" fill-rule="evenodd"/><path fill="#999999" d="m125.84777 313.9284l132.68576 0l0 36.559784l-132.68576 0z" fill-rule="evenodd"/><path fill="#7a7a7a" d="m258.53354 313.9284l152.44809 -152.44809l0 36.5598l-152.44809 152.44807z" fill-rule="evenodd"/><path fill="#adadad" d="m125.84777 313.9284l152.44806 -152.44809l132.68579 0l-152.44809 152.44809z" fill-rule="evenodd"/><path fill="#000000" fill-opacity="0.0" d="m125.84777 313.9284l152.44806 -152.44809l132.68579 0l0 36.5598l-152.44809 152.44807l-132.68576 0zm0 0l132.68576 0l152.44809 -152.44809m-152.44809 152.44809l0 36.559784" fill-rule="evenodd"/><path fill="#f3f3f3" fill-opacity="0.2692" d="m125.84777 191.97192l132.78397 0l0 158.51627l-132.78397 0z" fill-rule="evenodd"/><path fill="#c2c2c2" fill-opacity="0.2692" d="m258.63174 191.97192l152.34988 -152.34988l0 158.51627l-152.34988 152.34987z" fill-rule="evenodd"/><path fill="#f5f5f5" fill-opacity="0.2692" d="m125.84777 191.97192l152.34985 -152.34988l132.784 0l-152.34988 152.34988z" fill-rule="evenodd"/><path fill="#000000" fill-opacity="0.0" d="m125.84777 191.97192l152.34985 -152.34988l132.784 0l0 158.51627l-152.34988 152.34987l-132.78397 0zm0 0l132.78397 0l152.34988 -152.34988m-152.34988 152.34988l0 158.51627" fill-rule="evenodd"/><path stroke="#000000" stroke-width="1.0" stroke-linejoin="round" stroke-linecap="butt" d="m125.84777 191.97192l152.34985 -152.34988l132.784 0l0 158.51627l-152.34988 152.34987l-132.78397 0zm0 0l132.78397 0l152.34988 -152.34988m-152.34988 152.34988l0 158.51627" fill-rule="evenodd"/><path fill="#ffd966" d="m52.792324 125.03925l0 0c10.149864 -6.7143936 30.617855 4.340996 45.716534 24.69291l0 0c15.098686 20.351913 19.110497 42.293488 8.960632 49.007874l0 0c-10.149864 6.7144012 -30.617851 -4.3410034 -45.716534 -24.692917l0 0c-15.098682 -20.351898 -19.110493 -42.293472 -8.960632 -49.007866z" fill-rule="evenodd"/><path stroke="#000000" stroke-width="1.0" stroke-linejoin="round" stroke-linecap="butt" d="m52.792324 125.03925l0 0c10.149864 -6.7143936 30.617855 4.340996 45.716534 24.69291l0 0c15.098686 20.351913 19.110497 42.293488 8.960632 49.007874l0 0c-10.149864 6.7144012 -30.617851 -4.3410034 -45.716534 -24.692917l0 0c-15.098682 -20.351898 -19.110493 -42.293472 -8.960632 -49.007866z" fill-rule="evenodd"/><path fill="#ffd966" d="m52.97453 124.889206l65.88696 -23.490616l34.71425 46.79225l-45.92405 50.399155z" fill-rule="evenodd"/><path stroke="#000000" stroke-width="1.0" stroke-linejoin="round" stroke-linecap="butt" d="m52.97453 124.889206l65.88696 -23.490616l34.71425 46.79225l-45.92405 50.399155z" fill-rule="evenodd"/><path fill="#ffd966" d="m149.02641 80.53788l0 0c-3.1198425 2.0640945 2.2830048 14.440239 12.067566 27.64289c9.784576 13.202652 20.245667 22.232224 23.365494 20.168137l-32.26114 21.344131c-3.1198273 2.0641022 -13.580917 -6.9654846 -23.365494 -20.168121c-9.784569 -13.20266 -15.187408 -25.578796 -12.067574 -27.642899z" fill-rule="evenodd"/><path fill="#ffe8a3" d="m149.02641 80.53788l0 0c3.1198273 -2.0640945 13.580917 6.9654846 23.365479 20.168137c9.784576 13.202644 15.187424 25.578789 12.067581 27.64289l0 0c-3.1198273 2.064087 -13.580917 -6.9654846 -23.365494 -20.168137c-9.784561 -13.202652 -15.187408 -25.578796 -12.067566 -27.64289z" fill-rule="evenodd"/><path fill="#000000" fill-opacity="0.0" d="m184.45947 128.3489l0 0c-3.1198273 2.064087 -13.580917 -6.9654846 -23.365494 -20.168137c-9.784561 -13.202652 -15.187408 -25.578796 -12.067566 -27.64289l0 0c3.1198273 -2.0640945 13.580917 6.9654846 23.365479 20.168137c9.784576 13.202644 15.187424 25.578789 12.067581 27.64289l-32.26114 21.344131c-3.1198273 2.0641022 -13.580917 -6.9654846 -23.365494 -20.168121c-9.784569 -13.20266 -15.187408 -25.578796 -12.067574 -27.642899l32.261147 -21.34414" fill-rule="evenodd"/><path stroke="#000000" stroke-width="1.0" stroke-linejoin="round" stroke-linecap="butt" d="m184.45947 128.3489l0 0c-3.1198273 2.064087 -13.580917 -6.9654846 -23.365494 -20.168137c-9.784561 -13.202652 -15.187408 -25.578796 -12.067566 -27.64289l0 0c3.1198273 -2.0640945 13.580917 6.9654846 23.365479 20.168137c9.784576 13.202644 15.187424 25.578789 12.067581 27.64289l-32.26114 21.344131c-3.1198273 2.0641022 -13.580917 -6.9654846 -23.365494 -20.168121c-9.784569 -13.20266 -15.187408 -25.578796 -12.067574 -27.642899l32.261147 -21.34414" fill-rule="evenodd"/><path fill="#000000" fill-opacity="0.0" d="m168.62895 68.43146l0 0c-3.3740692 2.229889 1.7028198 14.57122 11.339539 27.565132c9.6367035 12.993912 20.184036 21.71988 23.558105 19.489983l-51.403473 33.97209c-3.374054 2.229889 -13.921387 -6.496063 -23.558105 -19.489975c-9.636711 -12.993919 -14.713593 -25.33525 -11.339523 -27.56514z" fill-rule="evenodd"/><path fill="#000000" fill-opacity="0.0" d="m168.62895 68.43146l0 0c3.3740692 -2.229889 13.921402 6.496071 23.55812 19.489983c9.6367035 12.993912 14.713593 25.335243 11.339523 27.565132l0 0c-3.3740692 2.2298965 -13.921402 -6.496071 -23.558105 -19.489983c-9.636719 -12.993912 -14.713608 -25.335243 -11.339539 -27.565132z" fill-rule="evenodd"/><path fill="#000000" fill-opacity="0.0" d="m203.5266 115.48657l0 0c-3.3740692 2.2298965 -13.921402 -6.496071 -23.558105 -19.489983c-9.636719 -12.993912 -14.713608 -25.335243 -11.339539 -27.565132l0 0c3.3740692 -2.229889 13.921402 6.496071 23.55812 19.489983c9.6367035 12.993912 14.713593 25.335243 11.339523 27.565132l-51.403473 33.97209c-3.374054 2.229889 -13.921387 -6.496063 -23.558105 -19.489975c-9.636711 -12.993919 -14.713593 -25.33525 -11.339523 -27.56514l51.403458 -33.97209" fill-rule="evenodd"/><path fill="#ffffff" fill-opacity="0.4" d="m168.62895 68.43146l0 0c3.3740692 -2.229889 13.921402 6.496071 23.55812 19.489983c9.6367035 12.993912 14.713593 25.335243 11.339523 27.565132l0 0c-3.3740692 2.2298965 -13.921402 -6.496071 -23.558105 -19.489983c-9.636719 -12.993912 -14.713608 -25.335243 -11.339539 -27.565132z" fill-rule="evenodd"/><path stroke="#000000" stroke-width="1.0" stroke-linejoin="round" stroke-linecap="butt" d="m203.5266 115.48657l0 0c-3.3740692 2.2298965 -13.921402 -6.496071 -23.558105 -19.489983c-9.636719 -12.993912 -14.713608 -25.335243 -11.339539 -27.565132l0 0c3.3740692 -2.229889 13.921402 6.496071 23.55812 19.489983c9.6367035 12.993912 14.713593 25.335243 11.339523 27.565132l-51.403473 33.97209c-3.374054 2.229889 -13.921387 -6.496063 -23.558105 -19.489975c-9.636711 -12.993919 -14.713593 -25.33525 -11.339523 -27.56514l51.403458 -33.97209" fill-rule="evenodd"/><path fill="#ffd966" d="m52.797234 125.04798l0 0c8.140762 -5.3923874 26.980057 6.734703 42.078743 27.086617l0 0c15.098679 20.351898 20.73919 41.221786 12.598419 46.614166l0 0c-8.140762 5.392395 -26.980057 -6.7346954 -42.078735 -27.086609l0 0c-15.098682 -20.351913 -20.73919 -41.221786 -12.598427 -46.614174z" fill-rule="evenodd"/><path fill="#45818e" d="m441.35767 109.20723l0 0c-10.149872 -6.714386 -30.617859 4.3410034 -45.716522 24.692917l0 0c-15.098694 20.351913 -19.110504 42.293488 -8.960632 49.007874l0 0c10.149872 6.714386 30.617859 -4.3410034 45.716522 -24.692917l0 0c15.098694 -20.351913 19.110504 -42.29348 8.960632 -49.007874z" fill-rule="evenodd"/><path stroke="#000000" stroke-width="1.0" stroke-linejoin="round" stroke-linecap="butt" d="m441.35767 109.20723l0 0c-10.149872 -6.714386 -30.617859 4.3410034 -45.716522 24.692917l0 0c-15.098694 20.351913 -19.110504 42.293488 -8.960632 49.007874l0 0c10.149872 6.714386 30.617859 -4.3410034 45.716522 -24.692917l0 0c15.098694 -20.351913 19.110504 -42.29348 8.960632 -49.007874z" fill-rule="evenodd"/><path fill="#45818e" d="m441.17548 109.05718l-65.88696 -23.490608l-34.714264 46.79225l45.92404 50.39914z" fill-rule="evenodd"/><path stroke="#000000" stroke-width="1.0" stroke-linejoin="round" stroke-linecap="butt" d="m441.17548 109.05718l-65.88696 -23.490608l-34.714264 46.79225l45.92404 50.39914z" fill-rule="evenodd"/><path fill="#45818e" d="m343.91467 66.336525l0 0c3.1198425 2.0640945 -2.0150757 14.073608 -11.469147 26.82399c-9.454071 12.750389 -19.647247 21.413338 -22.76709 19.349236l32.26117 21.344147c3.119812 2.064087 13.312988 -6.598854 22.76706 -19.349236c9.454071 -12.750389 14.588989 -24.759895 11.469147 -26.823997z" fill-rule="evenodd"/><path fill="#8fb3bb" d="m343.91467 66.336525l0 0c-3.1198425 -2.0640945 -13.312988 6.598854 -22.76706 19.349236c-9.454071 12.750389 -14.588989 24.759895 -11.469177 26.82399l0 0c3.1198425 2.0641022 13.313019 -6.5988464 22.76709 -19.349236c9.454071 -12.750381 14.588989 -24.759895 11.469147 -26.82399z" fill-rule="evenodd"/><path fill="#000000" fill-opacity="0.0" d="m309.67844 112.50975l0 0c3.1198425 2.0641022 13.313019 -6.5988464 22.76709 -19.349236c9.454071 -12.750381 14.588989 -24.759895 11.469147 -26.82399l0 0c-3.1198425 -2.0640945 -13.312988 6.598854 -22.76706 19.349236c-9.454071 12.750389 -14.588989 24.759895 -11.469177 26.82399l32.26117 21.344147c3.119812 2.064087 13.312988 -6.598854 22.76706 -19.349236c9.454071 -12.750389 14.588989 -24.759895 11.469147 -26.823997l-32.26114 -21.34414" fill-rule="evenodd"/><path stroke="#000000" stroke-width="1.0" stroke-linejoin="round" stroke-linecap="butt" d="m309.67844 112.50975l0 0c3.1198425 2.0641022 13.313019 -6.5988464 22.76709 -19.349236c9.454071 -12.750381 14.588989 -24.759895 11.469147 -26.82399l0 0c-3.1198425 -2.0640945 -13.312988 6.598854 -22.76706 19.349236c-9.454071 12.750389 -14.588989 24.759895 -11.469177 26.82399l32.26117 21.344147c3.119812 2.064087 13.312988 -6.598854 22.76706 -19.349236c9.454071 -12.750389 14.588989 -24.759895 11.469147 -26.823997l-32.26114 -21.34414" fill-rule="evenodd"/><path fill="#000000" fill-opacity="0.0" d="m324.31107 52.599438l0 0c3.374054 2.229889 -1.7028198 14.571224 -11.339539 27.565136c-9.636719 12.993912 -20.184021 21.719872 -23.558105 19.489983l51.403473 33.97209c3.374054 2.229889 13.921387 -6.496071 23.558105 -19.489983c9.636719 -12.993912 14.713593 -25.335243 11.339539 -27.56514z" fill-rule="evenodd"/><path fill="#000000" fill-opacity="0.0" d="m324.31107 52.599438l0 0c-3.374054 -2.2298927 -13.921387 6.496071 -23.558105 19.489979c-9.636719 12.993912 -14.713593 25.335243 -11.339539 27.56514l0 0c3.3740845 2.229889 13.921387 -6.496071 23.558105 -19.489983c9.636719 -12.993912 14.713593 -25.335247 11.339539 -27.565136z" fill-rule="evenodd"/><path fill="#000000" fill-opacity="0.0" d="m289.41342 99.65456l0 0c3.3740845 2.229889 13.921387 -6.496071 23.558105 -19.489983c9.636719 -12.993912 14.713593 -25.335247 11.339539 -27.565136l0 0c-3.374054 -2.2298927 -13.921387 6.496071 -23.558105 19.489979c-9.636719 12.993912 -14.713593 25.335243 -11.339539 27.56514l51.403473 33.97209c3.374054 2.229889 13.921387 -6.496071 23.558105 -19.489983c9.636719 -12.993912 14.713593 -25.335243 11.339539 -27.56514l-51.403473 -33.972088" fill-rule="evenodd"/><path fill="#ffffff" fill-opacity="0.4" d="m324.31107 52.599438l0 0c-3.374054 -2.2298927 -13.921387 6.496071 -23.558105 19.489979c-9.636719 12.993912 -14.713593 25.335243 -11.339539 27.56514l0 0c3.3740845 2.229889 13.921387 -6.496071 23.558105 -19.489983c9.636719 -12.993912 14.713593 -25.335247 11.339539 -27.565136z" fill-rule="evenodd"/><path stroke="#000000" stroke-width="1.0" stroke-linejoin="round" stroke-linecap="butt" d="m289.41342 99.65456l0 0c3.3740845 2.229889 13.921387 -6.496071 23.558105 -19.489983c9.636719 -12.993912 14.713593 -25.335247 11.339539 -27.565136l0 0c-3.374054 -2.2298927 -13.921387 6.496071 -23.558105 19.489979c-9.636719 12.993912 -14.713593 25.335243 -11.339539 27.56514l51.403473 33.97209c3.374054 2.229889 13.921387 -6.496071 23.558105 -19.489983c9.636719 -12.993912 14.713593 -25.335243 11.339539 -27.56514l-51.403473 -33.972088" fill-rule="evenodd"/><path fill="#45818e" d="m441.35275 109.21596l0 0c-8.140747 -5.3923874 -26.980042 6.734703 -42.078735 27.086609l0 0c-15.098663 20.351913 -20.739197 41.221786 -12.598419 46.61418l0 0c8.140778 5.3923798 26.980072 -6.7347107 42.078735 -27.086624l0 0c15.098694 -20.351898 20.739197 -41.22178 12.598419 -46.614166z" fill-rule="evenodd"/><path fill="#9900ff" d="m396.62015 176.0025l0 0c-10.149872 -6.714386 -30.617859 4.3410034 -45.716553 24.692917l0 0c-15.098663 20.351913 -19.110474 42.293488 -8.960632 49.007874l0 0c10.149872 6.7144012 30.617859 -4.3410034 45.716553 -24.692917l0 0c15.098663 -20.351898 19.110474 -42.293472 8.960632 -49.007874z" fill-rule="evenodd"/><path stroke="#000000" stroke-width="1.0" stroke-linejoin="round" stroke-linecap="butt" d="m396.62015 176.0025l0 0c-10.149872 -6.714386 -30.617859 4.3410034 -45.716553 24.692917l0 0c-15.098663 20.351913 -19.110474 42.293488 -8.960632 49.007874l0 0c10.149872 6.7144012 30.617859 -4.3410034 45.716553 -24.692917l0 0c15.098663 -20.351898 19.110474 -42.293472 8.960632 -49.007874z" fill-rule="evenodd"/><path fill="#9900ff" d="m396.43793 175.85246l-65.88696 -23.490616l-34.714233 46.79225l45.92404 50.399155z" fill-rule="evenodd"/><path stroke="#000000" stroke-width="1.0" stroke-linejoin="round" stroke-linecap="butt" d="m396.43793 175.85246l-65.88696 -23.490616l-34.714233 46.79225l45.92404 50.399155z" fill-rule="evenodd"/><path fill="#9900ff" d="m299.17712 133.1318l0 0c3.1198425 2.064087 -2.0150757 14.073608 -11.469147 26.82399c-9.454071 12.750381 -19.647217 21.41333 -22.76706 19.349228l32.26114 21.344147c3.1198425 2.0641022 13.312988 -6.5988464 22.76706 -19.349243c9.454071 -12.750381 14.588989 -24.759888 11.469177 -26.82399z" fill-rule="evenodd"/><path fill="#c166ff" d="m299.17712 133.1318l0 0c-3.119812 -2.0641022 -13.312988 6.5988464 -22.76706 19.349228c-9.454071 12.750381 -14.588989 24.759903 -11.469147 26.82399l0 0c3.1198425 2.0641022 13.312988 -6.5988464 22.76706 -19.349228c9.454071 -12.750381 14.588989 -24.759903 11.469147 -26.82399z" fill-rule="evenodd"/><path fill="#000000" fill-opacity="0.0" d="m264.94092 179.30502l0 0c3.1198425 2.0641022 13.312988 -6.5988464 22.76706 -19.349228c9.454071 -12.750381 14.588989 -24.759903 11.469147 -26.82399l0 0c-3.119812 -2.0641022 -13.312988 6.5988464 -22.76706 19.349228c-9.454071 12.750381 -14.588989 24.759903 -11.469147 26.82399l32.26114 21.344147c3.1198425 2.0641022 13.312988 -6.5988464 22.76706 -19.349243c9.454071 -12.750381 14.588989 -24.759888 11.469177 -26.82399l-32.26117 -21.344131" fill-rule="evenodd"/><path stroke="#000000" stroke-width="1.0" stroke-linejoin="round" stroke-linecap="butt" d="m264.94092 179.30502l0 0c3.1198425 2.0641022 13.312988 -6.5988464 22.76706 -19.349228c9.454071 -12.750381 14.588989 -24.759903 11.469147 -26.82399l0 0c-3.119812 -2.0641022 -13.312988 6.5988464 -22.76706 19.349228c-9.454071 12.750381 -14.588989 24.759903 -11.469147 26.82399l32.26114 21.344147c3.1198425 2.0641022 13.312988 -6.5988464 22.76706 -19.349243c9.454071 -12.750381 14.588989 -24.759888 11.469177 -26.82399l-32.26117 -21.344131" fill-rule="evenodd"/><path fill="#000000" fill-opacity="0.0" d="m279.57355 119.32122l0 0c3.374054 2.229889 -1.7028198 14.57122 -11.339539 27.565132c-9.636719 12.993912 -20.184052 21.71988 -23.55812 19.48999l51.403458 33.97209c3.3740845 2.229889 13.921417 -6.4960785 23.558136 -19.48999c9.636719 -12.993912 14.713593 -25.335236 11.339508 -27.565125z" fill-rule="evenodd"/><path fill="#000000" fill-opacity="0.0" d="m279.57355 119.32122l0 0c-3.3740845 -2.229889 -13.921417 6.496071 -23.558136 19.489983c-9.6367035 12.993912 -14.713577 25.33525 -11.339523 27.56514l0 0c3.3740692 2.229889 13.921402 -6.4960785 23.55812 -19.48999c9.636719 -12.993912 14.713593 -25.335243 11.339539 -27.565132z" fill-rule="evenodd"/><path fill="#000000" fill-opacity="0.0" d="m244.67589 166.37634l0 0c3.3740692 2.229889 13.921402 -6.4960785 23.55812 -19.48999c9.636719 -12.993912 14.713593 -25.335243 11.339539 -27.565132l0 0c-3.3740845 -2.229889 -13.921417 6.496071 -23.558136 19.489983c-9.6367035 12.993912 -14.713577 25.33525 -11.339523 27.56514l51.403458 33.97209c3.3740845 2.229889 13.921417 -6.4960785 23.558136 -19.48999c9.636719 -12.993912 14.713593 -25.335236 11.339508 -27.565125l-51.403442 -33.9721" fill-rule="evenodd"/><path fill="#ffffff" fill-opacity="0.4" d="m279.57355 119.32122l0 0c-3.3740845 -2.229889 -13.921417 6.496071 -23.558136 19.489983c-9.6367035 12.993912 -14.713577 25.33525 -11.339523 27.56514l0 0c3.3740692 2.229889 13.921402 -6.4960785 23.55812 -19.48999c9.636719 -12.993912 14.713593 -25.335243 11.339539 -27.565132z" fill-rule="evenodd"/><path stroke="#000000" stroke-width="1.0" stroke-linejoin="round" stroke-linecap="butt" d="m244.67589 166.37634l0 0c3.3740692 2.229889 13.921402 -6.4960785 23.55812 -19.48999c9.636719 -12.993912 14.713593 -25.335243 11.339539 -27.565132l0 0c-3.3740845 -2.229889 -13.921417 6.496071 -23.558136 19.489983c-9.6367035 12.993912 -14.713577 25.33525 -11.339523 27.56514l51.403458 33.97209c3.3740845 2.229889 13.921417 -6.4960785 23.558136 -19.48999c9.636719 -12.993912 14.713593 -25.335236 11.339508 -27.565125l-51.403442 -33.9721" fill-rule="evenodd"/><path fill="#9900ff" d="m396.61523 176.01123l0 0c-8.140778 -5.3923798 -26.980072 6.7347107 -42.078735 27.086624l0 0c-15.098694 20.351898 -20.739197 41.221786 -12.598419 46.614166l0 0c8.140747 5.3923798 26.980042 -6.7347107 42.078735 -27.086609l0 0c15.098663 -20.351913 20.739166 -41.221786 12.598419 -46.61418z" fill-rule="evenodd"/></g></svg>