<svg version="1.1" viewBox="0.0 0.0 326.20472440944883 427.0839895013123" fill="none" stroke="none" stroke-linecap="square" stroke-miterlimit="10" xmlns:xlink="http://www.w3.org/1999/xlink" xmlns="http://www.w3.org/2000/svg"><clipPath id="p.0"><path d="m0 0l326.2047 0l0 427.08398l-326.2047 0l0 -427.08398z" clip-rule="nonzero"/></clipPath><g clip-path="url(#p.0)"><path fill="#000000" fill-opacity="0.0" d="m0 0l326.2047 0l0 427.08398l-326.2047 0z" fill-rule="evenodd"/><path fill="#000000" fill-opacity="0.0" d="m104.43044 36.041996l0 0c0 8.008129 25.967491 14.5 58.000008 14.5c32.032516 0 58.0 -6.491871 58.0 -14.5l0 157.67717c0 8.008133 -25.967484 14.5 -58.0 14.5c-32.032516 0 -58.000008 -6.491867 -58.000008 -14.5z" fill-rule="evenodd"/><path fill="#000000" fill-opacity="0.0" d="m104.43044 36.041996l0 0c0 -8.008131 25.967491 -14.500002 58.000008 -14.500002c32.032516 0 58.0 6.491871 58.0 14.500002l0 0c0 8.008129 -25.967484 14.5 -58.0 14.5c-32.032516 0 -58.000008 -6.491871 -58.000008 -14.5z" fill-rule="evenodd"/><path fill="#000000" fill-opacity="0.0" d="m220.43045 36.041996l0 0c0 8.008129 -25.967484 14.5 -58.0 14.5c-32.032516 0 -58.000008 -6.491871 -58.000008 -14.5l0 0c0 -8.008131 25.967491 -14.500002 58.000008 -14.500002c32.032516 0 58.0 6.491871 58.0 14.500002l0 157.67717c0 8.008133 -25.967484 14.5 -58.0 14.5c-32.032516 0 -58.000008 -6.491867 -58.000008 -14.5l0 -157.67717" fill-rule="evenodd"/><path fill="#ffffff" fill-opacity="0.4" d="m104.43044 36.041996l0 0c0 -8.008131 25.967491 -14.500002 58.000008 -14.500002c32.032516 0 58.0 6.491871 58.0 14.500002l0 0c0 8.008129 -25.967484 14.5 -58.0 14.5c-32.032516 0 -58.000008 -6.491871 -58.000008 -14.5z" fill-rule="evenodd"/><path stroke="#000000" stroke-width="1.0" stroke-linejoin="round" stroke-linecap="butt" d="m220.43045 36.041996l0 0c0 8.008129 -25.967484 14.5 -58.0 14.5c-32.032516 0 -58.000008 -6.491871 -58.000008 -14.5l0 0c0 -8.008131 25.967491 -14.500002 58.000008 -14.500002c32.032516 0 58.0 6.491871 58.0 14.500002l0 157.67717c0 8.008133 -25.967484 14.5 -58.0 14.5c-32.032516 0 -58.000008 -6.491867 -58.000008 -14.5l0 -157.67717" fill-rule="evenodd"/><path fill="#000000" fill-opacity="0.0" d="m65.76378 351.542l0 0c0 -23.935242 43.57997 -43.338593 97.33858 -43.338593l0 0c53.75862 0 97.33859 19.40335 97.33859 43.338593l0 0c0 23.935242 -43.57997 43.338593 -97.33859 43.338593l0 0c-53.758606 0 -97.33858 -19.40335 -97.33858 -43.338593z" fill-rule="evenodd"/><path fill="#d9d9d9" d="m65.76378 356.866l0 0c0 -26.874939 43.57997 -48.661407 97.33858 -48.661407l0 0c53.75862 0 97.33859 21.786469 97.33859 48.661407l0 0c0 26.87497 -43.57997 48.661438 -97.33859 48.661438l0 0c-53.758606 0 -97.33858 -21.786469 -97.33858 -48.661438z" fill-rule="evenodd"/><path stroke="#000000" stroke-width="1.0" stroke-linejoin="round" stroke-linecap="butt" d="m65.76378 356.866l0 0c0 -26.874939 43.57997 -48.661407 97.33858 -48.661407l0 0c53.75862 0 97.33859 21.786469 97.33859 48.661407l0 0c0 26.87497 -43.57997 48.661438 -97.33859 48.661438l0 0c-53.758606 0 -97.33858 -21.786469 -97.33858 -48.661438z" fill-rule="evenodd"/><path fill="#000000" fill-opacity="0.0" d="m105.19685 197.52742l-39.433075 159.33858" fill-rule="evenodd"/><path stroke="#000000" stroke-width="1.0" stroke-linejoin="round" stroke-linecap="butt" d="m105.19685 197.52742l-39.433075 159.33858" fill-rule="evenodd"/><path fill="#000000" fill-opacity="0.0" d="m219.43307 195.88963l41.007874 160.97636" fill-rule="evenodd"/><path stroke="#000000" stroke-width="1.0" stroke-linejoin="round" stroke-linecap="butt" d="m219.43307 195.88963l41.007874 160.97636" fill-rule="evenodd"/></g></svg>