<svg version="1.1" viewBox="0.0 0.0 457.3333333333333 410.6666666666667" fill="none" stroke="none" stroke-linecap="square" stroke-miterlimit="10" xmlns:xlink="http://www.w3.org/1999/xlink" xmlns="http://www.w3.org/2000/svg"><clipPath id="p.0"><path d="m0 0l457.33334 0l0 410.66666l-457.33334 0l0 -410.66666z" clip-rule="nonzero"/></clipPath><g clip-path="url(#p.0)"><path fill="#000000" fill-opacity="0.0" d="m0 0l457.33334 0l0 410.66666l-457.33334 0z" fill-rule="evenodd"/><defs><radialGradient id="p.1" gradientUnits="userSpaceOnUse" gradientTransform="matrix(11.546429564117814 0.0 0.0 11.546429564117814 0.0 0.0)" spreadMethod="pad" cx="19.82478744099218" cy="17.75031448184051" fx="19.82478744099218" fy="17.75031448184051" r="11.546429634094238"><stop offset="0.0" stop-color="#dddddd"/><stop offset="1.0" stop-color="#919191"/></radialGradient></defs><path fill="url(#p.1)" d="m129.28346 204.95276l0 0c0 -48.931564 44.60231 -88.59843 99.622055 -88.59843l0 0c55.019745 0 99.62204 39.666862 99.62204 88.59843l0 0c0 48.93155 -44.602295 88.59842 -99.62204 88.59842l0 0c-55.019745 0 -99.622055 -39.66687 -99.622055 -88.59842z" fill-rule="evenodd"/><path stroke="#000000" stroke-width="1.0" stroke-linejoin="round" stroke-linecap="butt" d="m129.28346 204.95276l0 0c0 -48.931564 44.60231 -88.59843 99.622055 -88.59843l0 0c55.019745 0 99.62204 39.666862 99.62204 88.59843l0 0c0 48.93155 -44.602295 88.59842 -99.62204 88.59842l0 0c-55.019745 0 -99.622055 -39.66687 -99.622055 -88.59842z" fill-rule="evenodd"/></g></svg>