<svg version="1.1" viewBox="0.0 0.0 119.39632545931758 126.69816272965879" fill="none" stroke="none" stroke-linecap="square" stroke-miterlimit="10" xmlns:xlink="http://www.w3.org/1999/xlink" xmlns="http://www.w3.org/2000/svg"><clipPath id="p.0"><path d="m0 0l119.396324 0l0 126.698166l-119.396324 0l0 -126.698166z" clip-rule="nonzero"/></clipPath><g clip-path="url(#p.0)"><path fill="#000000" fill-opacity="0.0" d="m0 0l119.396324 0l0 126.698166l-119.396324 0z" fill-rule="evenodd"/><path fill="#666666" d="m25.929134 108.266815l0 0c0 -9.019196 14.00256 -16.330704 31.275589 -16.330704l0 0c17.27303 0 31.275593 7.311508 31.275593 16.330704l0 0c0 9.019203 -14.002563 16.330711 -31.275593 16.330711l0 0c-17.27303 0 -31.275589 -7.311508 -31.275589 -16.330711z" fill-rule="evenodd"/><path stroke="#000000" stroke-width="1.0" stroke-linejoin="round" stroke-linecap="butt" d="m25.929134 108.266815l0 0c0 -9.019196 14.00256 -16.330704 31.275589 -16.330704l0 0c17.27303 0 31.275593 7.311508 31.275593 16.330704l0 0c0 9.019203 -14.002563 16.330711 -31.275593 16.330711l0 0c-17.27303 0 -31.275589 -7.311508 -31.275589 -16.330711z" fill-rule="evenodd"/><path fill="#999999" d="m25.929134 108.07835l12.401573 -49.606297l37.748035 0l12.401573 49.606297z" fill-rule="evenodd"/><path stroke="#000000" stroke-width="1.0" stroke-linejoin="round" stroke-linecap="butt" d="m25.929134 108.07835l12.401573 -49.606297l37.748035 0l12.401573 49.606297z" fill-rule="evenodd"/><path fill="#666666" d="m25.929134 108.26234l0 0c0 -7.2362366 14.00256 -13.102364 31.275589 -13.102364l0 0c17.27303 0 31.275593 5.866127 31.275593 13.102364l0 0c0 7.2362366 -14.002563 13.102364 -31.275593 13.102364l0 0c-17.27303 0 -31.275589 -5.866127 -31.275589 -13.102364z" fill-rule="evenodd"/><path fill="#000000" fill-opacity="0.0" d="m38.57611 10.324006l0 0c0 2.5722551 8.3409 4.6574802 18.629921 4.6574802c10.289024 0 18.629921 -2.085225 18.629921 -4.6574802l0 47.125984c0 2.572258 -8.340897 4.657482 -18.629921 4.657482c-10.289021 0 -18.629921 -2.0852242 -18.629921 -4.657482z" fill-rule="evenodd"/><path fill="#000000" fill-opacity="0.0" d="m38.57611 10.324006l0 0c0 -2.5722556 8.3409 -4.6574802 18.629921 -4.6574802c10.289024 0 18.629921 2.0852246 18.629921 4.6574802l0 0c0 2.5722551 -8.340897 4.6574802 -18.629921 4.6574802c-10.289021 0 -18.629921 -2.085225 -18.629921 -4.6574802z" fill-rule="evenodd"/><path fill="#000000" fill-opacity="0.0" d="m75.83595 10.324006l0 0c0 2.5722551 -8.340897 4.6574802 -18.629921 4.6574802c-10.289021 0 -18.629921 -2.085225 -18.629921 -4.6574802l0 0c0 -2.5722556 8.3409 -4.6574802 18.629921 -4.6574802c10.289024 0 18.629921 2.0852246 18.629921 4.6574802l0 47.125984c0 2.572258 -8.340897 4.657482 -18.629921 4.657482c-10.289021 0 -18.629921 -2.0852242 -18.629921 -4.657482l0 -47.125984" fill-rule="evenodd"/><path fill="#ffffff" fill-opacity="0.4" d="m38.57611 10.324006l0 0c0 -2.5722556 8.3409 -4.6574802 18.629921 -4.6574802c10.289024 0 18.629921 2.0852246 18.629921 4.6574802l0 0c0 2.5722551 -8.340897 4.6574802 -18.629921 4.6574802c-10.289021 0 -18.629921 -2.085225 -18.629921 -4.6574802z" fill-rule="evenodd"/><path stroke="#000000" stroke-width="1.0" stroke-linejoin="round" stroke-linecap="butt" d="m75.83595 10.324006l0 0c0 2.5722551 -8.340897 4.6574802 -18.629921 4.6574802c-10.289021 0 -18.629921 -2.085225 -18.629921 -4.6574802l0 0c0 -2.5722556 8.3409 -4.6574802 18.629921 -4.6574802c10.289024 0 18.629921 2.0852246 18.629921 4.6574802l0 47.125984c0 2.572258 -8.340897 4.657482 -18.629921 4.657482c-10.289021 0 -18.629921 -2.0852242 -18.629921 -4.657482l0 -47.125984" fill-rule="evenodd"/><path fill="#999999" d="m38.574802 42.266552l0 0c0 1.6329346 8.3409 2.9566917 18.629921 2.9566917c10.289021 0 18.629925 -1.3237572 18.629925 -2.9566917l0 17.740158c0 1.6329346 -8.340904 2.9566917 -18.629925 2.9566917c-10.289021 0 -18.629921 -1.3237572 -18.629921 -2.9566917z" fill-rule="evenodd"/><path fill="#c1c1c1" d="m38.574802 42.266552l0 0c0 -1.6329346 8.3409 -2.9566917 18.629921 -2.9566917c10.289021 0 18.629925 1.3237572 18.629925 2.9566917l0 0c0 1.6329346 -8.340904 2.9566917 -18.629925 2.9566917c-10.289021 0 -18.629921 -1.3237572 -18.629921 -2.9566917z" fill-rule="evenodd"/><path fill="#000000" fill-opacity="0.0" d="m75.83465 42.266552l0 0c0 1.6329346 -8.340904 2.9566917 -18.629925 2.9566917c-10.289021 0 -18.629921 -1.3237572 -18.629921 -2.9566917l0 0c0 -1.6329346 8.3409 -2.9566917 18.629921 -2.9566917c10.289021 0 18.629925 1.3237572 18.629925 2.9566917l0 17.740158c0 1.6329346 -8.340904 2.9566917 -18.629925 2.9566917c-10.289021 0 -18.629921 -1.3237572 -18.629921 -2.9566917l0 -17.740158" fill-rule="evenodd"/><path stroke="#000000" stroke-width="1.0" stroke-linejoin="round" stroke-linecap="butt" d="m75.83465 42.266552l0 0c0 1.6329346 -8.340904 2.9566917 -18.629925 2.9566917c-10.289021 0 -18.629921 -1.3237572 -18.629921 -2.9566917l0 0c0 -1.6329346 8.3409 -2.9566917 18.629921 -2.9566917c10.289021 0 18.629925 1.3237572 18.629925 2.9566917l0 17.740158c0 1.6329346 -8.340904 2.9566917 -18.629925 2.9566917c-10.289021 0 -18.629921 -1.3237572 -18.629921 -2.9566917l0 -17.740158" fill-rule="evenodd"/></g></svg>