<svg version="1.1" viewBox="0.0 0.0 119.39632545931758 126.69816272965879" fill="none" stroke="none" stroke-linecap="square" stroke-miterlimit="10" xmlns:xlink="http://www.w3.org/1999/xlink" xmlns="http://www.w3.org/2000/svg"><clipPath id="p.0"><path d="m0 0l119.396324 0l0 126.698166l-119.396324 0l0 -126.698166z" clip-rule="nonzero"/></clipPath><g clip-path="url(#p.0)"><path fill="#000000" fill-opacity="0.0" d="m0 0l119.396324 0l0 126.698166l-119.396324 0z" fill-rule="evenodd"/><defs><radialGradient id="p.1" gradientUnits="userSpaceOnUse" gradientTransform="matrix(2.595575189689123 0.0 0.0 2.595575189689123 0.0 0.0)" spreadMethod="pad" cx="18.67720676355952" cy="4.692247868839309" fx="18.67720676355952" fy="4.692247868839309" r="2.5955750942230225"><stop offset="0.0" stop-color="#d4e5f5"/><stop offset="1.0" stop-color="#70a4d5"/></radialGradient></defs><path fill="url(#p.1)" d="m43.72219 12.179082l0 0c0 -2.6353111 2.1292877 -4.771653 4.755905 -4.771653l0 0c1.2613449 0 2.4710274 0.5027261 3.3629303 1.3975849c0.89190674 0.89485836 1.3929749 2.1085472 1.3929749 3.3740683l0 0c0 2.635312 -2.1292915 4.771653 -4.755905 4.771653l0 0c-2.6266174 0 -4.755905 -2.136341 -4.755905 -4.771653z" fill-rule="evenodd"/><defs><radialGradient id="p.2" gradientUnits="userSpaceOnUse" gradientTransform="matrix(2.975453153037412 0.0 0.0 2.975453153037412 0.0 0.0)" spreadMethod="pad" cx="22.165967945175428" cy="6.008428185023327" fx="22.165967945175428" fy="6.008428185023327" r="2.9754531383514404"><stop offset="0.0" stop-color="#d4e5f5"/><stop offset="1.0" stop-color="#70a4d5"/></radialGradient></defs><path fill="url(#p.2)" d="m59.764824 17.877796l0 0c0 -3.4963531 2.770897 -6.3307085 6.1889725 -6.3307085l0 0c1.6414185 0 3.2156143 0.6669836 4.3762665 1.8542223c1.1606598 1.1872377 1.8127136 2.7974777 1.8127136 4.476486l0 0c0 3.496355 -2.770897 6.3307095 -6.18898 6.3307095l0 0c-3.4180756 0 -6.1889725 -2.8343544 -6.1889725 -6.3307095z" fill-rule="evenodd"/><defs><radialGradient id="p.3" gradientUnits="userSpaceOnUse" gradientTransform="matrix(2.1548859694799662 0.0 0.0 2.1548859694799662 0.0 0.0)" spreadMethod="pad" cx="24.10852039121831" cy="10.125009636873928" fx="24.10852039121831" fy="10.125009636873928" r="2.15488600730896"><stop offset="0.0" stop-color="#d4e5f5"/><stop offset="1.0" stop-color="#70a4d5"/></radialGradient></defs><path fill="url(#p.3)" d="m48.67552 21.818241l0 0c0 -1.8177567 1.4665337 -3.291338 3.275589 -3.291338l0 0c0.8687439 0 1.7019005 0.3467636 2.3161926 0.96401024c0.61429214 0.6172466 0.9594002 1.4544106 0.9594002 2.3273277l0 0c0 1.8177567 -1.4665337 3.291338 -3.2755928 3.291338l0 0c-1.8090553 0 -3.275589 -1.4735813 -3.275589 -3.291338z" fill-rule="evenodd"/><defs><radialGradient id="p.4" gradientUnits="userSpaceOnUse" gradientTransform="matrix(2.975453153037412 0.0 0.0 2.975453153037412 0.0 0.0)" spreadMethod="pad" cx="16.285483393989956" cy="10.986757998075962" fx="16.285483393989956" fy="10.986757998075962" r="2.9754531383514404"><stop offset="0.0" stop-color="#d4e5f5"/><stop offset="1.0" stop-color="#70a4d5"/></radialGradient></defs><path fill="url(#p.4)" d="m42.267715 32.690582l0 0c0 -3.4963531 2.7709007 -6.3307076 6.1889763 -6.3307076l0 0c1.6414185 0 3.2156105 0.66698456 4.3762665 1.8542213c1.1606598 1.1872387 1.8127098 2.7974796 1.8127098 4.476486l0 0c0 3.496357 -2.770897 6.3307114 -6.1889763 6.3307114l0 0c-3.4180756 0 -6.1889763 -2.8343544 -6.1889763 -6.3307114z" fill-rule="evenodd"/><defs><radialGradient id="p.5" gradientUnits="userSpaceOnUse" gradientTransform="matrix(2.41110644112267 0.0 0.0 2.41110644112267 0.0 0.0)" spreadMethod="pad" cx="24.97754839619638" cy="12.139626546267856" fx="24.97754839619638" fy="12.139626546267856" r="2.4111063480377197"><stop offset="0.0" stop-color="#d4e5f5"/><stop offset="1.0" stop-color="#70a4d5"/></radialGradient></defs><path fill="url(#p.5)" d="m56.176285 29.269932l0 0c0 -2.3048096 1.8120117 -4.173229 4.047241 -4.173229l0 0c1.0733986 0 2.102829 0.4396782 2.8618355 1.222311c0.7590065 0.7826328 1.1854134 1.8441086 1.1854134 2.9509182l0 0c0 2.3048096 -1.8120155 4.173229 -4.047249 4.173229l0 0c-2.2352295 0 -4.047241 -1.8684196 -4.047241 -4.173229z" fill-rule="evenodd"/><defs><radialGradient id="p.6" gradientUnits="userSpaceOnUse" gradientTransform="matrix(1.624602859430397 0.0 0.0 1.624602859430397 0.0 0.0)" spreadMethod="pad" cx="42.1703573919106" cy="22.367485138922635" fx="42.1703573919106" fy="22.367485138922635" r="1.6246029138565063"><stop offset="0.0" stop-color="#d4e5f5"/><stop offset="1.0" stop-color="#70a4d5"/></radialGradient></defs><path fill="url(#p.6)" d="m66.62032 36.33828l0 0c0 -1.0175934 0.84606934 -1.8425179 1.8897629 -1.8425179l0 0c0.5011902 0 0.9818649 0.19412231 1.3362656 0.5396614c0.354393 0.3455391 0.5534973 0.8141899 0.5534973 1.3028564l0 0c0 1.0175972 -0.84607697 1.8425217 -1.8897629 1.8425217l0 0c-1.0436935 0 -1.8897629 -0.82492447 -1.8897629 -1.8425217z" fill-rule="evenodd"/><path fill="#666666" d="m25.929134 108.266815l0 0c0 -9.019196 14.00256 -16.330704 31.275589 -16.330704l0 0c17.27303 0 31.275593 7.311508 31.275593 16.330704l0 0c0 9.019203 -14.002563 16.330711 -31.275593 16.330711l0 0c-17.27303 0 -31.275589 -7.311508 -31.275589 -16.330711z" fill-rule="evenodd"/><path stroke="#000000" stroke-width="1.0" stroke-linejoin="round" stroke-linecap="butt" d="m25.929134 108.266815l0 0c0 -9.019196 14.00256 -16.330704 31.275589 -16.330704l0 0c17.27303 0 31.275593 7.311508 31.275593 16.330704l0 0c0 9.019203 -14.002563 16.330711 -31.275593 16.330711l0 0c-17.27303 0 -31.275589 -7.311508 -31.275589 -16.330711z" fill-rule="evenodd"/><path fill="#999999" d="m25.929134 108.07835l12.401573 -49.606297l37.748035 0l12.401573 49.606297z" fill-rule="evenodd"/><path stroke="#000000" stroke-width="1.0" stroke-linejoin="round" stroke-linecap="butt" d="m25.929134 108.07835l12.401573 -49.606297l37.748035 0l12.401573 49.606297z" fill-rule="evenodd"/><path fill="#666666" d="m25.929134 108.26234l0 0c0 -7.2362366 14.00256 -13.102364 31.275589 -13.102364l0 0c17.27303 0 31.275593 5.866127 31.275593 13.102364l0 0c0 7.2362366 -14.002563 13.102364 -31.275593 13.102364l0 0c-17.27303 0 -31.275589 -5.866127 -31.275589 -13.102364z" fill-rule="evenodd"/><path fill="#000000" fill-opacity="0.0" d="m38.57611 10.324006l0 0c0 2.5722551 8.3409 4.6574802 18.629921 4.6574802c10.289024 0 18.629921 -2.085225 18.629921 -4.6574802l0 47.125984c0 2.572258 -8.340897 4.657482 -18.629921 4.657482c-10.289021 0 -18.629921 -2.0852242 -18.629921 -4.657482z" fill-rule="evenodd"/><path fill="#000000" fill-opacity="0.0" d="m38.57611 10.324006l0 0c0 -2.5722556 8.3409 -4.6574802 18.629921 -4.6574802c10.289024 0 18.629921 2.0852246 18.629921 4.6574802l0 0c0 2.5722551 -8.340897 4.6574802 -18.629921 4.6574802c-10.289021 0 -18.629921 -2.085225 -18.629921 -4.6574802z" fill-rule="evenodd"/><path fill="#000000" fill-opacity="0.0" d="m75.83595 10.324006l0 0c0 2.5722551 -8.340897 4.6574802 -18.629921 4.6574802c-10.289021 0 -18.629921 -2.085225 -18.629921 -4.6574802l0 0c0 -2.5722556 8.3409 -4.6574802 18.629921 -4.6574802c10.289024 0 18.629921 2.0852246 18.629921 4.6574802l0 47.125984c0 2.572258 -8.340897 4.657482 -18.629921 4.657482c-10.289021 0 -18.629921 -2.0852242 -18.629921 -4.657482l0 -47.125984" fill-rule="evenodd"/><path fill="#ffffff" fill-opacity="0.4" d="m38.57611 10.324006l0 0c0 -2.5722556 8.3409 -4.6574802 18.629921 -4.6574802c10.289024 0 18.629921 2.0852246 18.629921 4.6574802l0 0c0 2.5722551 -8.340897 4.6574802 -18.629921 4.6574802c-10.289021 0 -18.629921 -2.085225 -18.629921 -4.6574802z" fill-rule="evenodd"/><path stroke="#000000" stroke-width="1.0" stroke-linejoin="round" stroke-linecap="butt" d="m75.83595 10.324006l0 0c0 2.5722551 -8.340897 4.6574802 -18.629921 4.6574802c-10.289021 0 -18.629921 -2.085225 -18.629921 -4.6574802l0 0c0 -2.5722556 8.3409 -4.6574802 18.629921 -4.6574802c10.289024 0 18.629921 2.0852246 18.629921 4.6574802l0 47.125984c0 2.572258 -8.340897 4.657482 -18.629921 4.657482c-10.289021 0 -18.629921 -2.0852242 -18.629921 -4.657482l0 -47.125984" fill-rule="evenodd"/><path fill="#999999" d="m38.574802 42.266552l0 0c0 1.6329346 8.3409 2.9566917 18.629921 2.9566917c10.289021 0 18.629925 -1.3237572 18.629925 -2.9566917l0 17.740158c0 1.6329346 -8.340904 2.9566917 -18.629925 2.9566917c-10.289021 0 -18.629921 -1.3237572 -18.629921 -2.9566917z" fill-rule="evenodd"/><path fill="#c1c1c1" d="m38.574802 42.266552l0 0c0 -1.6329346 8.3409 -2.9566917 18.629921 -2.9566917c10.289021 0 18.629925 1.3237572 18.629925 2.9566917l0 0c0 1.6329346 -8.340904 2.9566917 -18.629925 2.9566917c-10.289021 0 -18.629921 -1.3237572 -18.629921 -2.9566917z" fill-rule="evenodd"/><path fill="#000000" fill-opacity="0.0" d="m75.83465 42.266552l0 0c0 1.6329346 -8.340904 2.9566917 -18.629925 2.9566917c-10.289021 0 -18.629921 -1.3237572 -18.629921 -2.9566917l0 0c0 -1.6329346 8.3409 -2.9566917 18.629921 -2.9566917c10.289021 0 18.629925 1.3237572 18.629925 2.9566917l0 17.740158c0 1.6329346 -8.340904 2.9566917 -18.629925 2.9566917c-10.289021 0 -18.629921 -1.3237572 -18.629921 -2.9566917l0 -17.740158" fill-rule="evenodd"/><path stroke="#000000" stroke-width="1.0" stroke-linejoin="round" stroke-linecap="butt" d="m75.83465 42.266552l0 0c0 1.6329346 -8.340904 2.9566917 -18.629925 2.9566917c-10.289021 0 -18.629921 -1.3237572 -18.629921 -2.9566917l0 0c0 -1.6329346 8.3409 -2.9566917 18.629921 -2.9566917c10.289021 0 18.629925 1.3237572 18.629925 2.9566917l0 17.740158c0 1.6329346 -8.340904 2.9566917 -18.629925 2.9566917c-10.289021 0 -18.629921 -1.3237572 -18.629921 -2.9566917l0 -17.740158" fill-rule="evenodd"/><defs><radialGradient id="p.7" gradientUnits="userSpaceOnUse" gradientTransform="matrix(1.624602859430397 0.0 0.0 1.624602859430397 0.0 0.0)" spreadMethod="pad" cx="23.73177075300089" cy="3.425024417286303" fx="23.73177075300089" fy="3.425024417286303" r="1.6246029138565063"><stop offset="0.0" stop-color="#d4e5f5"/><stop offset="1.0" stop-color="#70a4d5"/></radialGradient></defs><path fill="url(#p.7)" d="m36.66494 5.5643044l0 0c0 -1.0175953 0.84607315 -1.8425195 1.8897629 -1.8425195l0 0c0.5011978 0 0.9818649 0.19412208 1.3362656 0.53966165c0.35439682 0.3455391 0.5534973 0.81419134 0.5534973 1.3028579l0 0c0 1.0175958 -0.84607697 1.8425198 -1.8897629 1.8425198l0 0c-1.0436897 0 -1.8897629 -0.824924 -1.8897629 -1.8425198z" fill-rule="evenodd"/><defs><radialGradient id="p.8" gradientUnits="userSpaceOnUse" gradientTransform="matrix(2.595575189689123 0.0 0.0 2.595575189689123 0.0 0.0)" spreadMethod="pad" cx="30.32533621117767" cy="2.1439983499576583" fx="30.32533621117767" fy="2.1439983499576583" r="2.5955750942230225"><stop offset="0.0" stop-color="#d4e5f5"/><stop offset="1.0" stop-color="#70a4d5"/></radialGradient></defs><path fill="url(#p.8)" d="m73.95579 5.564909l0 0c0 -2.6353116 2.1292877 -4.7716537 4.755905 -4.7716537l0 0c1.2613449 0 2.4710236 0.5027264 3.3629303 1.3975849c0.89190674 0.89485884 1.3929749 2.1085477 1.3929749 3.3740687l0 0c0 2.6353111 -2.1292953 4.771653 -4.755905 4.771653l0 0c-2.6266174 0 -4.755905 -2.136342 -4.755905 -4.771653z" fill-rule="evenodd"/><defs><radialGradient id="p.9" gradientUnits="userSpaceOnUse" gradientTransform="matrix(2.1548859694799662 0.0 0.0 2.1548859694799662 0.0 0.0)" spreadMethod="pad" cx="27.74509941876227" cy="2.3484232222226415" fx="27.74509941876227" fy="2.3484232222226415" r="2.15488600730896"><stop offset="0.0" stop-color="#d4e5f5"/><stop offset="1.0" stop-color="#70a4d5"/></radialGradient></defs><path fill="url(#p.9)" d="m56.511936 5.060584l0 0c0 -1.8177559 1.4665298 -3.2913384 3.275589 -3.2913384l0 0c0.8687401 0 1.7019005 0.34676504 2.3161926 0.9640107c0.61429214 0.6172459 0.95939636 1.4544106 0.95939636 2.3273277l0 0c0 1.8177562 -1.4665298 3.291339 -3.275589 3.291339l0 0c-1.8090591 0 -3.275589 -1.4735827 -3.275589 -3.291339z" fill-rule="evenodd"/><defs><radialGradient id="p.10" gradientUnits="userSpaceOnUse" gradientTransform="matrix(2.1548859694799662 0.0 0.0 2.1548859694799662 0.0 0.0)" spreadMethod="pad" cx="15.186201867206305" cy="5.651665406280422" fx="15.186201867206305" fy="5.651665406280422" r="2.15488600730896"><stop offset="0.0" stop-color="#d4e5f5"/><stop offset="1.0" stop-color="#70a4d5"/></radialGradient></defs><path fill="url(#p.10)" d="m29.448942 12.178695l0 0c0 -1.8177567 1.4665318 -3.291339 3.275591 -3.291339l0 0c0.8687401 0 1.7019005 0.34676552 2.3161926 0.9640112c0.61429214 0.6172457 0.95939636 1.4544106 0.95939636 2.3273277l0 0c0 1.8177557 -1.4665298 3.291338 -3.275589 3.291338l0 0c-1.8090591 0 -3.275591 -1.4735823 -3.275591 -3.291338z" fill-rule="evenodd"/><defs><radialGradient id="p.11" gradientUnits="userSpaceOnUse" gradientTransform="matrix(1.624602859430397 0.0 0.0 1.624602859430397 0.0 0.0)" spreadMethod="pad" cx="42.1703573919106" cy="4.622167385781185" fx="42.1703573919106" fy="4.622167385781185" r="1.6246029138565063"><stop offset="0.0" stop-color="#d4e5f5"/><stop offset="1.0" stop-color="#70a4d5"/></radialGradient></defs><path fill="url(#p.11)" d="m66.62032 7.5091863l0 0c0 -1.0175953 0.84606934 -1.8425198 1.8897629 -1.8425198l0 0c0.5011902 0 0.9818649 0.19412231 1.3362656 0.5396619c0.354393 0.3455391 0.5534973 0.81419134 0.5534973 1.3028579l0 0c0 1.0175958 -0.84607697 1.8425202 -1.8897629 1.8425202l0 0c-1.0436935 0 -1.8897629 -0.82492447 -1.8897629 -1.8425202z" fill-rule="evenodd"/></g></svg>