<svg version="1.1" viewBox="0.0 0.0 252.0 410.1049868766404" fill="none" stroke="none" stroke-linecap="square" stroke-miterlimit="10" xmlns:xlink="http://www.w3.org/1999/xlink" xmlns="http://www.w3.org/2000/svg"><clipPath id="p.0"><path d="m0 0l252.0 0l0 410.10498l-252.0 0l0 -410.10498z" clip-rule="nonzero"/></clipPath><g clip-path="url(#p.0)"><path fill="#000000" fill-opacity="0.0" d="m0 0l252.0 0l0 410.10498l-252.0 0z" fill-rule="evenodd"/><defs><linearGradient id="p.1" gradientUnits="userSpaceOnUse" gradientTransform="matrix(17.849276306722004 4.0426517864852345 -4.0426517864852345 17.849276306722004 0.0 0.0)" spreadMethod="pad" x1="2.4762397133886127" y1="-0.5608902637626817" x2="2.476175289106616" y2="17.288386042843054"><stop offset="0.0" stop-color="#fff6db"/><stop offset="1.0" stop-color="#fad25c"/></linearGradient></defs><path fill="url(#p.1)" d="m120.42315 16.750105l17.995995 98.355l-18.195763 6.9969864l30.845238 87.77461l-18.706848 9.253708l30.511276 142.17308l-78.82858 -121.51427l22.392456 -9.318344l-48.549866 -77.39453l26.941895 -14.412979l-51.3577 -81.28683z" fill-rule="evenodd"/><path stroke="#ffff00" stroke-width="1.0" stroke-linejoin="round" stroke-linecap="butt" d="m120.42315 16.750105l17.995995 98.355l-18.195763 6.9969864l30.845238 87.77461l-18.706848 9.253708l30.511276 142.17308l-78.82858 -121.51427l22.392456 -9.318344l-48.549866 -77.39453l26.941895 -14.412979l-51.3577 -81.28683z" fill-rule="evenodd"/><defs><linearGradient id="p.2" gradientUnits="userSpaceOnUse" gradientTransform="matrix(-9.897752783901197 0.0 0.0 9.897752783901197 0.0 0.0)" spreadMethod="pad" x1="-22.17502330216194" y1="9.130904012598986" x2="-22.175058521190586" y2="19.02865679643752"><stop offset="0.0" stop-color="#fff6db"/><stop offset="1.0" stop-color="#fad25c"/></linearGradient></defs><path fill="url(#p.2)" d="m200.41757 90.375595l-9.874725 27.575432l4.0732117 3.2519073l-12.437927 23.629616l4.0732117 3.945816l-15.376938 39.56259l26.07756 -30.319382l-4.9733734 -4.2088776l16.202835 -19.420715l-5.806015 -6.0003815l17.107498 -20.373169z" fill-rule="evenodd"/><path stroke="#ffff00" stroke-width="1.0" stroke-linejoin="round" stroke-linecap="butt" d="m200.41757 90.375595l-9.874725 27.575432l4.0732117 3.2519073l-12.437927 23.629616l4.0732117 3.945816l-15.376938 39.56259l26.07756 -30.319382l-4.9733734 -4.2088776l16.202835 -19.420715l-5.806015 -6.0003815l17.107498 -20.373169z" fill-rule="evenodd"/><defs><linearGradient id="p.3" gradientUnits="userSpaceOnUse" gradientTransform="matrix(8.316240672583739 0.0 0.0 8.316240672583739 0.0 0.0)" spreadMethod="pad" x1="2.471526087747583" y1="31.3231155567761" x2="2.471496037183125" y2="39.63935622930554"><stop offset="0.0" stop-color="#fff6db"/><stop offset="1.0" stop-color="#fad25c"/></linearGradient></defs><path fill="url(#p.3)" d="m39.61914 260.49075l9.874729 19.467163l-4.0732155 2.2957153l12.437927 16.68158l-4.0732117 2.7855835l15.376938 27.929626l-26.07756 -21.404266l4.9733696 -2.9713135l-16.202833 -13.710266l5.806013 -4.236023l-17.10749 -14.38266z" fill-rule="evenodd"/><path stroke="#ffff00" stroke-width="1.0" stroke-linejoin="round" stroke-linecap="butt" d="m39.61914 260.49075l9.874729 19.467163l-4.0732155 2.2957153l12.437927 16.68158l-4.0732117 2.7855835l15.376938 27.929626l-26.07756 -21.404266l4.9733696 -2.9713135l-16.202833 -13.710266l5.806013 -4.236023l-17.10749 -14.38266z" fill-rule="evenodd"/></g></svg>