<svg version="1.1" viewBox="0.0 0.0 252.0 410.1049868766404" fill="none" stroke="none" stroke-linecap="square" stroke-miterlimit="10" xmlns:xlink="http://www.w3.org/1999/xlink" xmlns="http://www.w3.org/2000/svg"><clipPath id="p.0"><path d="m0 0l252.0 0l0 410.10498l-252.0 0l0 -410.10498z" clip-rule="nonzero"/></clipPath><g clip-path="url(#p.0)"><path fill="#000000" fill-opacity="0.0" d="m0 0l252.0 0l0 410.10498l-252.0 0z" fill-rule="evenodd"/><defs><linearGradient id="p.1" gradientUnits="userSpaceOnUse" gradientTransform="matrix(17.849276306722004 4.0426517864852345 -4.0426517864852345 17.849276306722004 0.0 0.0)" spreadMethod="pad" x1="2.4762397133886127" y1="-0.5608902637626817" x2="2.476175289106616" y2="17.288386042843054"><stop offset="0.0" stop-color="#dddddd"/><stop offset="1.0" stop-color="#919191"/></linearGradient></defs><path fill="url(#p.1)" d="m120.42315 16.750105l17.995995 98.355l-18.195763 6.9969864l30.845238 87.77461l-18.706848 9.253708l30.511276 142.17308l-78.82858 -121.51427l22.392456 -9.318344l-48.549866 -77.39453l26.941895 -14.412979l-51.3577 -81.28683z" fill-rule="evenodd"/><path stroke="#000000" stroke-width="1.0" stroke-linejoin="round" stroke-linecap="butt" d="m120.42315 16.750105l17.995995 98.355l-18.195763 6.9969864l30.845238 87.77461l-18.706848 9.253708l30.511276 142.17308l-78.82858 -121.51427l22.392456 -9.318344l-48.549866 -77.39453l26.941895 -14.412979l-51.3577 -81.28683z" fill-rule="evenodd"/></g></svg>