<svg version="1.1" viewBox="0.0 0.0 119.39632545931758 126.69816272965879" fill="none" stroke="none" stroke-linecap="square" stroke-miterlimit="10" xmlns:xlink="http://www.w3.org/1999/xlink" xmlns="http://www.w3.org/2000/svg"><clipPath id="p.0"><path d="m0 0l119.396324 0l0 126.698166l-119.396324 0l0 -126.698166z" clip-rule="nonzero"/></clipPath><g clip-path="url(#p.0)"><path fill="#000000" fill-opacity="0.0" d="m0 0l119.396324 0l0 126.698166l-119.396324 0z" fill-rule="evenodd"/><defs><radialGradient id="p.1" gradientUnits="userSpaceOnUse" gradientTransform="matrix(4.97230297291856 0.0 0.0 4.97230297291856 0.0 0.0)" spreadMethod="pad" cx="4.665212582588282" cy="4.7238048655332125" fx="4.665212582588282" fy="4.7238048655332125" r="4.9723029136657715"><stop offset="0.0" stop-color="#d4e5f5"/><stop offset="1.0" stop-color="#70a4d5"/></radialGradient></defs><path fill="url(#p.1)" d="m5.4488187 23.48819l0 0c0 -9.506256 7.9460645 -17.212599 17.748032 -17.212599l0 0c4.7070713 0 9.221352 1.8134646 12.549755 5.041454c3.3283997 3.2279882 5.1982765 7.60608 5.1982765 12.171145l0 0c0 9.506256 -7.946064 17.212597 -17.748032 17.212597l0 0c-9.801967 0 -17.748032 -7.706341 -17.748032 -17.212597z" fill-rule="evenodd"/><defs><radialGradient id="p.2" gradientUnits="userSpaceOnUse" gradientTransform="matrix(5.7033413403219795 0.0 0.0 5.7033413403219795 0.0 0.0)" spreadMethod="pad" cx="15.560248199897657" cy="7.715236042567261" fx="15.560248199897657" fy="7.715236042567261" r="5.703341484069824"><stop offset="0.0" stop-color="#d4e5f5"/><stop offset="1.0" stop-color="#70a4d5"/></radialGradient></defs><path fill="url(#p.2)" d="m65.54855 44.002625l0 0c0 -12.593832 10.38559 -22.80315 23.196854 -22.80315l0 0c6.1521835 0 12.052399 2.4024677 16.402649 6.6788883c4.350258 4.2764187 6.7942047 10.07649 6.7942047 16.124262l0 0c0 12.59383 -10.38559 22.803146 -23.196854 22.803146l0 0c-12.811264 0 -23.196854 -10.209316 -23.196854 -22.803146z" fill-rule="evenodd"/><defs><radialGradient id="p.3" gradientUnits="userSpaceOnUse" gradientTransform="matrix(4.126562297354403 0.0 0.0 4.126562297354403 0.0 0.0)" spreadMethod="pad" cx="8.782484597290068" cy="14.104942235323009" fx="8.782484597290068" fy="14.104942235323009" r="4.126562118530273"><stop offset="0.0" stop-color="#d4e5f5"/><stop offset="1.0" stop-color="#70a4d5"/></radialGradient></defs><path fill="url(#p.3)" d="m24.005249 58.20492l0 0c0 -6.5404434 5.478342 -11.842518 12.236221 -11.842518l0 0c3.245247 0 6.3575783 1.2476883 8.652313 3.4685936c2.2947388 2.2209015 3.583908 5.2330933 3.583908 8.373924l0 0c0 6.540447 -5.478344 11.842518 -12.236221 11.842518l0 0c-6.7578793 0 -12.236221 -5.3020706 -12.236221 -11.842518z" fill-rule="evenodd"/><defs><radialGradient id="p.4" gradientUnits="userSpaceOnUse" gradientTransform="matrix(5.7033413403219795 0.0 0.0 5.7033413403219795 0.0 0.0)" spreadMethod="pad" cx="4.067238660555291" cy="17.078444663030933" fx="4.067238660555291" fy="17.078444663030933" r="5.703341484069824"><stop offset="0.0" stop-color="#d4e5f5"/><stop offset="1.0" stop-color="#70a4d5"/></radialGradient></defs><path fill="url(#p.4)" d="m0 97.4042l0 0c0 -12.593826 10.385584 -22.803146 23.19685 -22.803146l0 0c6.1521873 0 12.052399 2.4024658 16.402649 6.6788864c4.350254 4.2764206 6.794201 10.076492 6.794201 16.12426l0 0c0 12.593834 -10.385582 22.803154 -23.19685 22.803154l0 0c-12.811266 0 -23.19685 -10.20932 -23.19685 -22.803154z" fill-rule="evenodd"/><defs><radialGradient id="p.5" gradientUnits="userSpaceOnUse" gradientTransform="matrix(4.620270845100601 0.0 0.0 4.620270845100601 0.0 0.0)" spreadMethod="pad" cx="14.553009422739354" cy="18.419333249520168" fx="14.553009422739354" fy="18.419333249520168" r="4.620270729064941"><stop offset="0.0" stop-color="#d4e5f5"/><stop offset="1.0" stop-color="#70a4d5"/></radialGradient></defs><path fill="url(#p.5)" d="m52.10499 85.10231l0 0c0 -8.314713 6.7756577 -15.055122 15.133858 -15.055122l0 0c4.013748 0 7.863106 1.5861588 10.701256 4.409546c2.83815 2.8233795 4.432602 6.65271 4.432602 10.6455765l0 0c0 8.314713 -6.7756577 15.055115 -15.133858 15.055115l0 0c-8.3582 0 -15.133858 -6.740402 -15.133858 -15.055115z" fill-rule="evenodd"/><defs><radialGradient id="p.6" gradientUnits="userSpaceOnUse" gradientTransform="matrix(3.122452619873201 0.0 0.0 3.122452619873201 0.0 0.0)" spreadMethod="pad" cx="31.50242497524908" cy="35.413635165023855" fx="31.50242497524908" fy="35.413635165023855" r="3.122452735900879"><stop offset="0.0" stop-color="#d4e5f5"/><stop offset="1.0" stop-color="#70a4d5"/></radialGradient></defs><path fill="url(#p.6)" d="m91.23097 110.5774l0 0c0 -3.6703033 3.1939392 -6.645668 7.1338577 -6.645668l0 0c3.9399185 0 7.1338577 2.9753647 7.1338577 6.645668l0 0c0 3.6702957 -3.1939392 6.645668 -7.1338577 6.645668l0 0c-3.9399185 0 -7.1338577 -2.9753723 -7.1338577 -6.645668z" fill-rule="evenodd"/><defs><radialGradient id="p.7" gradientUnits="userSpaceOnUse" gradientTransform="matrix(3.122452619873201 0.0 0.0 3.122452619873201 0.0 0.0)" spreadMethod="pad" cx="31.50242497524908" cy="2.1283395391756534" fx="31.50242497524908" fy="2.1283395391756534" r="3.122452735900879"><stop offset="0.0" stop-color="#d4e5f5"/><stop offset="1.0" stop-color="#70a4d5"/></radialGradient></defs><path fill="url(#p.7)" d="m91.23097 6.6456394l0 0c0 -3.670302 3.1939392 -6.6456695 7.1338577 -6.6456695l0 0c3.9399185 0 7.1338577 2.9753673 7.1338577 6.6456695l0 0c0 3.6703014 -3.1939392 6.645669 -7.1338577 6.645669l0 0c-3.9399185 0 -7.1338577 -2.9753675 -7.1338577 -6.645669z" fill-rule="evenodd"/></g></svg>