<svg version="1.1" viewBox="0.0 0.0 119.39632545931758 126.69816272965879" fill="none" stroke="none" stroke-linecap="square" stroke-miterlimit="10" xmlns:xlink="http://www.w3.org/1999/xlink" xmlns="http://www.w3.org/2000/svg"><clipPath id="p.0"><path d="m0 0l119.396324 0l0 126.698166l-119.396324 0l0 -126.698166z" clip-rule="nonzero"/></clipPath><g clip-path="url(#p.0)"><path fill="#000000" fill-opacity="0.0" d="m0 0l119.396324 0l0 126.698166l-119.396324 0z" fill-rule="evenodd"/><defs><linearGradient id="p.1" gradientUnits="userSpaceOnUse" gradientTransform="matrix(5.867309861293238 0.0 0.0 5.867309861293238 0.0 0.0)" spreadMethod="pad" x1="0.9286741328566545" y1="1.069563827670336" x2="0.9286528362375662" y2="6.936873688924924"><stop offset="0.0" stop-color="#ffffff"/><stop offset="1.0" stop-color="#b3b3b3"/></linearGradient></defs><path fill="url(#p.1)" d="m5.4488187 23.48819l0 0c0 -9.506256 7.9460645 -17.212599 17.748032 -17.212599l0 0c4.7070713 0 9.221352 1.8134646 12.549755 5.041454c3.3283997 3.2279882 5.1982765 7.60608 5.1982765 12.171145l0 0c0 9.506256 -7.946064 17.212597 -17.748032 17.212597l0 0c-9.801967 0 -17.748032 -7.706341 -17.748032 -17.212597z" fill-rule="evenodd"/><defs><linearGradient id="p.2" gradientUnits="userSpaceOnUse" gradientTransform="matrix(6.753256036877503 0.0 0.0 6.753256036877503 0.0 0.0)" spreadMethod="pad" x1="9.706215205303222" y1="3.139123863085413" x2="9.706190914502775" y2="9.89237989991923"><stop offset="0.0" stop-color="#ffffff"/><stop offset="1.0" stop-color="#b3b3b3"/></linearGradient></defs><path fill="url(#p.2)" d="m65.54855 44.002625l0 0c0 -12.593832 10.38559 -22.80315 23.196854 -22.80315l0 0c6.1521835 0 12.052399 2.4024677 16.402649 6.6788883c4.350258 4.2764187 6.7942047 10.07649 6.7942047 16.124262l0 0c0 12.59383 -10.38559 22.803146 -23.196854 22.803146l0 0c-12.811264 0 -23.196854 -10.209316 -23.196854 -22.803146z" fill-rule="evenodd"/><defs><linearGradient id="p.3" gradientUnits="userSpaceOnUse" gradientTransform="matrix(4.8667372688343375 0.0 0.0 4.8667372688343375 0.0 0.0)" spreadMethod="pad" x1="4.932513924176076" y1="9.526364341437528" x2="4.932496017454407" y2="14.393101610238924"><stop offset="0.0" stop-color="#ffffff"/><stop offset="1.0" stop-color="#b3b3b3"/></linearGradient></defs><path fill="url(#p.3)" d="m24.005249 58.20492l0 0c0 -6.5404434 5.478342 -11.842518 12.236221 -11.842518l0 0c3.245247 0 6.3575783 1.2476883 8.652313 3.4685936c2.2947388 2.2209015 3.583908 5.2330933 3.583908 8.373924l0 0c0 6.540447 -5.478344 11.842518 -12.236221 11.842518l0 0c-6.7578793 0 -12.236221 -5.3020706 -12.236221 -11.842518z" fill-rule="evenodd"/><defs><linearGradient id="p.4" gradientUnits="userSpaceOnUse" gradientTransform="matrix(6.753256131763724 0.0 0.0 6.753256131763724 0.0 0.0)" spreadMethod="pad" x1="8.983611632287048E-11" y1="11.046653532001617" x2="-2.4446631609201602E-5" y2="17.799909663721092"><stop offset="0.0" stop-color="#ffffff"/><stop offset="1.0" stop-color="#b3b3b3"/></linearGradient></defs><path fill="url(#p.4)" d="m0 97.4042l0 0c0 -12.593826 10.385584 -22.803146 23.19685 -22.803146l0 0c6.1521873 0 12.052399 2.4024658 16.402649 6.6788864c4.350254 4.2764206 6.794201 10.076492 6.794201 16.12426l0 0c0 12.593834 -10.385582 22.803154 -23.19685 22.803154l0 0c-12.811266 0 -23.19685 -10.20932 -23.19685 -22.803154z" fill-rule="evenodd"/><defs><linearGradient id="p.5" gradientUnits="userSpaceOnUse" gradientTransform="matrix(5.4872888339261285 0.0 0.0 5.4872888339261285 0.0 0.0)" spreadMethod="pad" x1="9.49557941154695" y1="12.765334971874461" x2="9.495558858797715" y2="18.2526238057621"><stop offset="0.0" stop-color="#ffffff"/><stop offset="1.0" stop-color="#b3b3b3"/></linearGradient></defs><path fill="url(#p.5)" d="m52.10499 85.10231l0 0c0 -8.314713 6.7756577 -15.055122 15.133858 -15.055122l0 0c4.013748 0 7.863106 1.5861588 10.701256 4.409546c2.83815 2.8233795 4.432602 6.65271 4.432602 10.6455765l0 0c0 8.314713 -6.7756577 15.055115 -15.133858 15.055115l0 0c-8.3582 0 -15.133858 -6.740402 -15.133858 -15.055115z" fill-rule="evenodd"/><defs><linearGradient id="p.6" gradientUnits="userSpaceOnUse" gradientTransform="matrix(3.6457358442245633 0.0 0.0 3.6457358442245633 0.0 0.0)" spreadMethod="pad" x1="25.024021220060025" y1="28.50773642139514" x2="25.024009971165302" y2="32.15347226560235"><stop offset="0.0" stop-color="#ffffff"/><stop offset="1.0" stop-color="#b3b3b3"/></linearGradient></defs><path fill="url(#p.6)" d="m91.23097 110.5774l0 0c0 -3.6703033 3.1939392 -6.645668 7.1338577 -6.645668l0 0c3.9399185 0 7.1338577 2.9753647 7.1338577 6.645668l0 0c0 3.6702957 -3.1939392 6.645668 -7.1338577 6.645668l0 0c-3.9399185 0 -7.1338577 -2.9753723 -7.1338577 -6.645668z" fill-rule="evenodd"/><defs><linearGradient id="p.7" gradientUnits="userSpaceOnUse" gradientTransform="matrix(3.6457359581759206 0.0 0.0 3.6457359581759206 0.0 0.0)" spreadMethod="pad" x1="25.024020437907613" y1="-2.237415373475266E-5" x2="25.02400637678965" y2="3.6457135839950694"><stop offset="0.0" stop-color="#ffffff"/><stop offset="1.0" stop-color="#b3b3b3"/></linearGradient></defs><path fill="url(#p.7)" d="m91.23097 6.6456394l0 0c0 -3.670302 3.1939392 -6.6456695 7.1338577 -6.6456695l0 0c3.9399185 0 7.1338577 2.9753673 7.1338577 6.6456695l0 0c0 3.6703014 -3.1939392 6.645669 -7.1338577 6.645669l0 0c-3.9399185 0 -7.1338577 -2.9753675 -7.1338577 -6.645669z" fill-rule="evenodd"/></g></svg>