<svg version="1.1" viewBox="0.0 0.0 457.3333333333333 410.6666666666667" fill="none" stroke="none" stroke-linecap="square" stroke-miterlimit="10" xmlns:xlink="http://www.w3.org/1999/xlink" xmlns="http://www.w3.org/2000/svg"><clipPath id="p.0"><path d="m0 0l457.33334 0l0 410.66666l-457.33334 0l0 -410.66666z" clip-rule="nonzero"/></clipPath><g clip-path="url(#p.0)"><path fill="#000000" fill-opacity="0.0" d="m0 0l457.33334 0l0 410.66666l-457.33334 0z" fill-rule="evenodd"/><defs><radialGradient id="p.1" gradientUnits="userSpaceOnUse" gradientTransform="matrix(16.40497659412551 0.0 0.0 16.40497659412551 0.0 0.0)" spreadMethod="pad" cx="13.938859671921163" cy="12.516527052337372" fx="13.938859671921163" fy="12.516527052337372" r="16.40497589111328"><stop offset="0.0" stop-color="#fff6db"/><stop offset="1.0" stop-color="#fad25c"/></radialGradient></defs><path fill="url(#p.1)" d="m429.3281 205.33333l-80.97522 25.736694l0 -51.473373zm-58.786377 -126.81562l-36.885284 69.37905l-40.72415 -36.396675zm-141.87505 -52.522957l28.796707 72.370575l-57.593414 0zm-141.89365 52.522957l77.62801 32.982376l-40.724136 36.396675zm-58.767784 126.81562l80.97522 -25.73668l0 51.473373zm58.767784 126.79903l36.903877 -69.36246l40.724136 36.396698zm141.89365 52.53955l-28.796707 -72.370575l57.593414 0zm141.87505 -52.53955l-77.609436 -32.96576l40.72415 -36.396698zm-242.20576 -126.79903c0 -49.52298 44.919586 -89.66929 100.33072 -89.66929c55.411118 0 100.3307 40.14631 100.3307 89.66929c0 49.52298 -44.919586 89.6693 -100.3307 89.6693c-55.411133 0 -100.33072 -40.146317 -100.33072 -89.6693z" fill-rule="evenodd"/><path stroke="#000000" stroke-width="1.0" stroke-linejoin="round" stroke-linecap="butt" d="m429.3281 205.33333l-80.97522 25.736694l0 -51.473373zm-58.786377 -126.81562l-36.885284 69.37905l-40.72415 -36.396675zm-141.87505 -52.522957l28.796707 72.370575l-57.593414 0zm-141.89365 52.522957l77.62801 32.982376l-40.724136 36.396675zm-58.767784 126.81562l80.97522 -25.73668l0 51.473373zm58.767784 126.79903l36.903877 -69.36246l40.724136 36.396698zm141.89365 52.53955l-28.796707 -72.370575l57.593414 0zm141.87505 -52.53955l-77.609436 -32.96576l40.72415 -36.396698zm-242.20576 -126.79903c0 -49.52298 44.919586 -89.66929 100.33072 -89.66929c55.411118 0 100.3307 40.14631 100.3307 89.66929c0 49.52298 -44.919586 89.6693 -100.3307 89.6693c-55.411133 0 -100.33072 -40.146317 -100.33072 -89.6693z" fill-rule="evenodd"/></g></svg>