<svg version="1.1" viewBox="0.0 0.0 213.3464566929134 408.6981627296588" fill="none" stroke="none" stroke-linecap="square" stroke-miterlimit="10" xmlns:xlink="http://www.w3.org/1999/xlink" xmlns="http://www.w3.org/2000/svg"><clipPath id="p.0"><path d="m0 0l213.34645 0l0 408.69815l-213.34645 0l0 -408.69815z" clip-rule="nonzero"/></clipPath><g clip-path="url(#p.0)"><path fill="#000000" fill-opacity="0.0" d="m0 0l213.34645 0l0 408.69815l-213.34645 0z" fill-rule="evenodd"/><path fill="#cfe2f3" d="m76.673225 41.598625l0 0c0 -5.522957 4.4772415 -10.0002 10.000206 -10.0002l39.999596 0l0 0c2.652214 0 5.1958084 1.0535908 7.071205 2.9289913c1.875412 1.8754005 2.9290009 4.418991 2.9290009 7.071209l0 243.33817c0 5.5229797 -4.477249 10.000214 -10.000206 10.000214l-39.999596 0c-5.5229645 0 -10.000206 -4.477234 -10.000206 -10.000214z" fill-rule="evenodd"/><path stroke="#000000" stroke-width="4.0" stroke-linejoin="round" stroke-linecap="butt" d="m76.673225 41.598625l0 0c0 -5.522957 4.4772415 -10.0002 10.000206 -10.0002l39.999596 0l0 0c2.652214 0 5.1958084 1.0535908 7.071205 2.9289913c1.875412 1.8754005 2.9290009 4.418991 2.9290009 7.071209l0 243.33817c0 5.5229797 -4.477249 10.000214 -10.000206 10.000214l-39.999596 0c-5.5229645 0 -10.000206 -4.477234 -10.000206 -10.000214z" fill-rule="evenodd"/><path fill="#cfe2f3" d="m55.334644 324.43832l0 0c0 -29.084106 22.985065 -52.661407 51.33858 -52.661407l0 0c13.615845 0 26.674004 5.548218 36.301857 15.424164c9.627853 9.875916 15.036728 23.270569 15.036728 37.237244l0 0c0 29.084106 -22.985062 52.661407 -51.338585 52.661407l0 0c-28.353516 0 -51.33858 -23.577301 -51.33858 -52.661407z" fill-rule="evenodd"/><path stroke="#000000" stroke-width="4.0" stroke-linejoin="round" stroke-linecap="butt" d="m55.334644 324.43832l0 0c0 -29.084106 22.985065 -52.661407 51.33858 -52.661407l0 0c13.615845 0 26.674004 5.548218 36.301857 15.424164c9.627853 9.875916 15.036728 23.270569 15.036728 37.237244l0 0c0 29.084106 -22.985062 52.661407 -51.338585 52.661407l0 0c-28.353516 0 -51.33858 -23.577301 -51.33858 -52.661407z" fill-rule="evenodd"/><path fill="#ff0000" d="m81.47769 60.036747l0 0c0 3.4789581 11.2810135 6.2992134 25.196846 6.2992134c13.91584 0 25.196846 -2.8202553 25.196846 -6.2992134l0 242.92914c0 3.4789429 -11.281006 6.299225 -25.196846 6.299225c-13.9158325 0 -25.196846 -2.820282 -25.196846 -6.299225z" fill-rule="evenodd"/><path fill="#ff6666" d="m81.47769 60.036747l0 0c0 -3.478962 11.2810135 -6.2992134 25.196846 -6.2992134c13.91584 0 25.196846 2.8202515 25.196846 6.2992134l0 0c0 3.4789581 -11.281006 6.2992134 -25.196846 6.2992134c-13.9158325 0 -25.196846 -2.8202553 -25.196846 -6.2992134z" fill-rule="evenodd"/><path fill="#000000" fill-opacity="0.0" d="m131.87138 60.036747l0 0c0 3.4789581 -11.281006 6.2992134 -25.196846 6.2992134c-13.9158325 0 -25.196846 -2.8202553 -25.196846 -6.2992134l0 0c0 -3.478962 11.2810135 -6.2992134 25.196846 -6.2992134c13.91584 0 25.196846 2.8202515 25.196846 6.2992134l0 242.92914c0 3.4789429 -11.281006 6.299225 -25.196846 6.299225c-13.9158325 0 -25.196846 -2.820282 -25.196846 -6.299225l0 -242.92914" fill-rule="evenodd"/><path fill="#ff0000" d="m63.334644 324.43832l0 0c0 -24.665833 19.403347 -44.661407 43.33858 -44.661407l0 0c11.49411 0 22.517448 4.7053833 30.645012 13.081024c8.127563 8.375641 12.693573 19.735443 12.693573 31.580383l0 0c0 24.665802 -19.40335 44.661407 -43.338585 44.661407l0 0c-23.935234 0 -43.33858 -19.995605 -43.33858 -44.661407z" fill-rule="evenodd"/><path fill="#000000" fill-opacity="0.0" d="m136.67323 217.5958c-4.33078 0 -4.9135284 2.417328 -8.66156 4.834656c-3.748024 2.4173126 -10.661346 4.8346405 -21.322693 4.8346405" fill-rule="evenodd"/><path stroke="#000000" stroke-width="2.0" stroke-linejoin="round" stroke-linecap="butt" d="m136.67323 217.5958c-4.33078 0 -4.9135284 2.417328 -8.66156 4.834656c-3.748024 2.4173126 -10.661346 4.8346405 -21.322693 4.8346405" fill-rule="evenodd"/><path fill="#000000" fill-opacity="0.0" d="m136.67323 235.09973c-4.33078 0 -4.9135284 2.417328 -8.66156 4.834656c-3.748024 2.4173126 -10.661346 4.8346405 -21.322693 4.8346405" fill-rule="evenodd"/><path stroke="#000000" stroke-width="2.0" stroke-linejoin="round" stroke-linecap="butt" d="m136.67323 235.09973c-4.33078 0 -4.9135284 2.417328 -8.66156 4.834656c-3.748024 2.4173126 -10.661346 4.8346405 -21.322693 4.8346405" fill-rule="evenodd"/><path fill="#000000" fill-opacity="0.0" d="m136.67323 200.09186c-4.33078 0 -4.9135284 2.417328 -8.66156 4.834656c-3.748024 2.4173126 -10.661346 4.8346405 -21.322693 4.8346405" fill-rule="evenodd"/><path stroke="#000000" stroke-width="2.0" stroke-linejoin="round" stroke-linecap="butt" d="m136.67323 200.09186c-4.33078 0 -4.9135284 2.417328 -8.66156 4.834656c-3.748024 2.4173126 -10.661346 4.8346405 -21.322693 4.8346405" fill-rule="evenodd"/><path fill="#000000" fill-opacity="0.0" d="m136.67323 182.58792c-4.33078 0 -4.9135284 2.417328 -8.66156 4.834656c-3.748024 2.4173126 -10.661346 4.8346405 -21.322693 4.8346405" fill-rule="evenodd"/><path stroke="#000000" stroke-width="2.0" stroke-linejoin="round" stroke-linecap="butt" d="m136.67323 182.58792c-4.33078 0 -4.9135284 2.417328 -8.66156 4.834656c-3.748024 2.4173126 -10.661346 4.8346405 -21.322693 4.8346405" fill-rule="evenodd"/><path fill="#000000" fill-opacity="0.0" d="m136.67323 165.08398c-4.33078 0 -4.9135284 2.417328 -8.66156 4.834656c-3.748024 2.4173126 -10.661346 4.8346405 -21.322693 4.8346405" fill-rule="evenodd"/><path stroke="#000000" stroke-width="2.0" stroke-linejoin="round" stroke-linecap="butt" d="m136.67323 165.08398c-4.33078 0 -4.9135284 2.417328 -8.66156 4.834656c-3.748024 2.4173126 -10.661346 4.8346405 -21.322693 4.8346405" fill-rule="evenodd"/><path fill="#000000" fill-opacity="0.0" d="m136.67323 252.60367c-4.33078 0 -4.9135284 2.417328 -8.66156 4.834656c-3.748024 2.417328 -10.661346 4.834656 -21.322693 4.834656" fill-rule="evenodd"/><path stroke="#000000" stroke-width="2.0" stroke-linejoin="round" stroke-linecap="butt" d="m136.67323 252.60367c-4.33078 0 -4.9135284 2.417328 -8.66156 4.834656c-3.748024 2.417328 -10.661346 4.834656 -21.322693 4.834656" fill-rule="evenodd"/><path fill="#000000" fill-opacity="0.0" d="m136.67323 270.1063c-4.33078 0 -4.9135284 2.417328 -8.66156 4.834656c-3.748024 2.417328 -10.661346 4.834656 -21.322693 4.834656" fill-rule="evenodd"/><path stroke="#000000" stroke-width="2.0" stroke-linejoin="round" stroke-linecap="butt" d="m136.67323 270.1063c-4.33078 0 -4.9135284 2.417328 -8.66156 4.834656c-3.748024 2.417328 -10.661346 4.834656 -21.322693 4.834656" fill-rule="evenodd"/><path fill="#000000" fill-opacity="0.0" d="m136.67323 147.58005c-4.33078 0 -4.9135284 2.417328 -8.66156 4.834656c-3.748024 2.4173126 -10.661346 4.8346405 -21.322693 4.8346405" fill-rule="evenodd"/><path stroke="#000000" stroke-width="2.0" stroke-linejoin="round" stroke-linecap="butt" d="m136.67323 147.58005c-4.33078 0 -4.9135284 2.417328 -8.66156 4.834656c-3.748024 2.4173126 -10.661346 4.8346405 -21.322693 4.8346405" fill-rule="evenodd"/><path fill="#000000" fill-opacity="0.0" d="m136.67323 130.07611c-4.33078 0 -4.9135284 2.417328 -8.66156 4.834656c-3.748024 2.4173126 -10.661346 4.8346405 -21.322693 4.8346405" fill-rule="evenodd"/><path stroke="#000000" stroke-width="2.0" stroke-linejoin="round" stroke-linecap="butt" d="m136.67323 130.07611c-4.33078 0 -4.9135284 2.417328 -8.66156 4.834656c-3.748024 2.4173126 -10.661346 4.8346405 -21.322693 4.8346405" fill-rule="evenodd"/><path fill="#000000" fill-opacity="0.0" d="m136.67323 112.57218c-4.33078 0 -4.9135284 2.4173203 -8.66156 4.8346405c-3.748024 2.417328 -10.661346 4.834648 -21.322693 4.834648" fill-rule="evenodd"/><path stroke="#000000" stroke-width="2.0" stroke-linejoin="round" stroke-linecap="butt" d="m136.67323 112.57218c-4.33078 0 -4.9135284 2.4173203 -8.66156 4.8346405c-3.748024 2.417328 -10.661346 4.834648 -21.322693 4.834648" fill-rule="evenodd"/><path fill="#000000" fill-opacity="0.0" d="m136.67323 95.068245c-4.33078 0 -4.9135284 2.4173203 -8.66156 4.8346405c-3.748024 2.417328 -10.661346 4.834648 -21.322693 4.834648" fill-rule="evenodd"/><path stroke="#000000" stroke-width="2.0" stroke-linejoin="round" stroke-linecap="butt" d="m136.67323 95.068245c-4.33078 0 -4.9135284 2.4173203 -8.66156 4.8346405c-3.748024 2.417328 -10.661346 4.834648 -21.322693 4.834648" fill-rule="evenodd"/><path fill="#000000" fill-opacity="0.0" d="m136.67323 77.56431c-4.33078 0 -4.9135284 2.4173203 -8.66156 4.8346405c-3.748024 2.417328 -10.661346 4.834648 -21.322693 4.834648" fill-rule="evenodd"/><path stroke="#000000" stroke-width="2.0" stroke-linejoin="round" stroke-linecap="butt" d="m136.67323 77.56431c-4.33078 0 -4.9135284 2.4173203 -8.66156 4.8346405c-3.748024 2.417328 -10.661346 4.834648 -21.322693 4.834648" fill-rule="evenodd"/></g></svg>